<?xml version="1.0" encoding="UTF-8" standalone="no"?>
<svg
   xmlns:dc="http://purl.org/dc/elements/1.1/"
   xmlns:cc="http://creativecommons.org/ns#"
   xmlns:rdf="http://www.w3.org/1999/02/22-rdf-syntax-ns#"
   xmlns:svg="http://www.w3.org/2000/svg"
   xmlns="http://www.w3.org/2000/svg"
   xmlns:sodipodi="http://sodipodi.sourceforge.net/DTD/sodipodi-0.dtd"
   xmlns:inkscape="http://www.inkscape.org/namespaces/inkscape"
   inkscape:export-ydpi="96"
   inkscape:export-xdpi="96"
   inkscape:export-filename="/home/emonge/Downloads/background.png"
   inkscape:version="1.0 (4035a4fb49, 2020-05-01)"
   sodipodi:docname="background.svg"
   viewBox="0 0 1920 1200"
   height="1200"
   width="1920"
   xml:space="preserve"
   id="svg2"
   version="1.1"><metadata
     id="metadata8"><rdf:RDF><cc:Work
         rdf:about=""><dc:format>image/svg+xml</dc:format><dc:type
           rdf:resource="http://purl.org/dc/dcmitype/StillImage" /><dc:title></dc:title></cc:Work></rdf:RDF></metadata><defs
     id="defs6"><clipPath
       id="clipPath18"
       clipPathUnits="userSpaceOnUse"><path
         id="path16"
         d="M 0,612 H 792 V 0 H 0 Z" /></clipPath></defs><sodipodi:namedview
     inkscape:current-layer="g10"
     inkscape:window-maximized="1"
     inkscape:window-y="0"
     inkscape:window-x="0"
     inkscape:cy="599.34849"
     inkscape:cx="191.06354"
     inkscape:zoom="0.35355339"
     showgrid="false"
     id="namedview4"
     inkscape:window-height="705"
     inkscape:window-width="1366"
     inkscape:pageshadow="2"
     inkscape:pageopacity="0"
     guidetolerance="10"
     gridtolerance="10"
     objecttolerance="10"
     borderopacity="1"
     bordercolor="#666666"
     pagecolor="#ffffff" /><g
     transform="matrix(1.3333333,0,0,-1.3333333,0,816)"
     inkscape:label="goku"
     inkscape:groupmode="layer"
     id="g10"><rect
       transform="scale(1,-1)"
       y="-612"
       x="-4.4408921e-16"
       height="900"
       width="1440"
       id="rect1382"
       style="fill:#0000ff;fill-rule:evenodd;stroke-width:0.740369" /><g
       transform="translate(801.13405,-353.99884)"
       id="g12"><g
         clip-path="url(#clipPath18)"
         id="g14"><g
           transform="translate(395.6172,519)"
           id="g20"><path
             id="path22"
             style="fill:#000000;fill-opacity:1;fill-rule:nonzero;stroke:none"
             d="m 0,0 c -117.978,0 -213.617,-95.299 -213.617,-212.855 0,-117.557 95.639,-212.856 213.617,-212.856 117.978,0 213.617,95.299 213.617,212.856 C 213.617,-95.299 117.978,0 0,0" /></g><g
           transform="translate(396.0957,493.813)"
           id="g24"><path
             id="path26"
             style="fill:#ffffff;fill-opacity:1;fill-rule:nonzero;stroke:none"
             d="m 0,0 c -103.82,0 -187.983,-83.863 -187.983,-187.313 0,-103.45 84.163,-187.312 187.983,-187.312 103.82,0 187.983,83.862 187.983,187.312 C 187.983,-83.863 103.82,0 0,0" /></g><g
           transform="translate(381.8638,410.4575)"
           id="g28"><path
             id="path30"
             style="fill:#000000;fill-opacity:1;fill-rule:evenodd;stroke:none"
             d="m 0,0 h -66.305 c 12.933,8.379 35.703,29.327 35.703,29.327 h 56.468 z m -7.304,-27.223 h -61.74 v 10.78 h 61.74 z m 0,-27.756 h -61.74 v 10.78 h 61.74 z m -0.514,-69.58 h -68.6 v 12.74 h 68.6 z m 0,-30.38 h -68.6 v 12.739 h 68.6 z m 34.3,110.74 h 61.74 v -10.78 h -61.74 z m 0,27.756 h 61.74 v -10.78 h -61.74 z m 0,-125.757 h 68.6 v -12.739 h -68.6 z m 0,30.381 h 68.6 v -12.74 h -68.6 z m 118.58,-55.86 c -10.571,-5.296 -8.759,-21.884 -20.58,-29.401 -18.224,-11.587 -70.845,-0.229 -98,-2.939 v 27.439 c 22.545,-4.131 46.131,5.64 63.7,0 4.259,-1.366 6.847,-7.907 10.78,-8.819 10.985,-2.547 19.736,5.099 26.46,8.819 4.659,18.305 -3.18,37.915 1.96,53.901 1.465,4.555 9.848,8.642 9.8,13.72 -0.048,5.077 -9.376,10.999 -12.74,13.719 -5.564,4.501 -10.452,8.767 -16.66,10.781 -8.725,-0.888 -12.882,-12.298 -22.54,-14.701 -17.97,-4.468 -40.181,3.287 -60.76,0 0.645,7.522 -1.296,17.63 0.98,23.521 20.623,-3.437 41.468,4.208 56.84,-0.98 4.347,-1.467 5.828,-7.929 9.8,-8.82 10.159,-2.281 17.126,8.09 25.48,8.82 v 49 c 4.646,4.827 11.402,7.544 13.72,14.7 -8.13,10.816 -18.49,19.403 -31.36,25.48 -7.986,-1.757 -9.234,-13.106 -18.62,-15.68 -15.595,-4.277 -36.32,2.357 -52.92,0.98 9.52,3.734 18.599,10.687 29.4,13.72 5.866,1.648 13.477,0.381 17.64,5.88 -5.019,8.753 -14.254,29.014 -26.46,29.4 -6.496,0.205 -15.153,-9.276 -23.52,-11.76 -14.888,-4.421 -29.002,-2.281 -45.08,0 4.056,7.377 15.771,7.095 20.58,13.72 -5.401,11.643 -26.484,21.387 -41.16,17.64 -8.369,-2.137 -17.784,-19.025 -24.5,-27.44 -13.453,-16.858 -31.168,-33.445 -47.04,-46.06 -8.746,-6.952 -19.853,-12.254 -22.54,-22.54 11.131,1.283 19.144,5.683 29.4,7.84 3.148,-19.392 1.131,-43.949 2.94,-64.68 11.918,-4.373 21.154,6.112 32.34,8.82 18.174,4.398 38.486,1.274 59.78,0.98 -0.645,-7.195 1.295,-16.976 -0.98,-22.541 -38.301,-1.059 -74.909,-0.427 -99.96,11.76 -2.206,-35.686 -0.386,-75.4 -0.98,-112.699 21.111,-1.838 35.26,3.286 34.3,23.519 22.214,-0.652 47.039,1.306 67.62,-0.979 -3.094,-34.387 2.249,-54.575 31.36,-56.84 34.708,-2.701 101.6,-5.607 121.52,3.92 6.887,3.294 11.938,11.736 15.68,16.66 -14.319,4.954 -13.433,25.114 -15.68,42.14" /></g></g></g></g></svg>
