<?xml version="1.0" encoding="UTF-8" standalone="no"?>
<!-- Created with Inkscape (http://www.inkscape.org/) -->
<svg xmlns:dc="http://purl.org/dc/elements/1.1/" xmlns:cc="http://creativecommons.org/ns#" xmlns:rdf="http://www.w3.org/1999/02/22-rdf-syntax-ns#" xmlns:svg="http://www.w3.org/2000/svg" xmlns="http://www.w3.org/2000/svg" xmlns:xlink="http://www.w3.org/1999/xlink" xmlns:sodipodi="http://sodipodi.sourceforge.net/DTD/sodipodi-0.dtd" xmlns:inkscape="http://www.inkscape.org/namespaces/inkscape" id="svg2" sodipodi:version="0.32" inkscape:version="0.46" width="100" height="109" version="1.0" sodipodi:docname="DBZ_UBX2.svg" inkscape:output_extension="org.inkscape.output.svg.inkscape">
  <metadata id="metadata7">
    <rdf:RDF>
      <cc:Work rdf:about="">
        <dc:format>image/svg+xml</dc:format>
        <dc:type rdf:resource="http://purl.org/dc/dcmitype/StillImage"/>
      </cc:Work>
    </rdf:RDF>
  </metadata>
  <defs id="defs5">
    <linearGradient id="linearGradient3293">
      <stop style="stop-color:#fdef62;stop-opacity:1;" offset="0" id="stop3295"/>
      <stop style="stop-color:#edaa85;stop-opacity:0.05704698;" offset="1" id="stop3297"/>
    </linearGradient>
    <linearGradient id="linearGradient3283">
      <stop id="stop3285" offset="0" style="stop-color:#ffff00;stop-opacity:0;"/>
      <stop style="stop-color:#ffff1f;stop-opacity:0.71812081;" offset="0.2633079" id="stop3287"/>
      <stop id="stop3289" offset="1" style="stop-color:#ffff3f;stop-opacity:0;"/>
    </linearGradient>
    <linearGradient id="linearGradient3254">
      <stop style="stop-color:#edaa86;stop-opacity:1;" offset="0" id="stop3256"/>
      <stop style="stop-color:#b06205;stop-opacity:1;" offset="1" id="stop3258"/>
    </linearGradient>
    <linearGradient id="linearGradient3246">
      <stop style="stop-color:#f01515;stop-opacity:1;" offset="0" id="stop3248"/>
      <stop style="stop-color:#f01515;stop-opacity:0;" offset="1" id="stop3250"/>
    </linearGradient>
    <linearGradient id="linearGradient3238">
      <stop style="stop-color:#000000;stop-opacity:1;" offset="0" id="stop3240"/>
      <stop style="stop-color:#000000;stop-opacity:0;" offset="1" id="stop3242"/>
    </linearGradient>
    <linearGradient id="linearGradient3218">
      <stop style="stop-color:#682606;stop-opacity:1;" offset="0" id="stop3220"/>
      <stop style="stop-color:#682606;stop-opacity:0;" offset="1" id="stop3222"/>
    </linearGradient>
    <linearGradient id="linearGradient3204">
      <stop style="stop-color:#ffffff;stop-opacity:1;" offset="0" id="stop3206"/>
      <stop style="stop-color:#ffffff;stop-opacity:0.16778524;" offset="1" id="stop3208"/>
    </linearGradient>
    <linearGradient id="linearGradient3194">
      <stop style="stop-color:#fef8f0;stop-opacity:1;" offset="0" id="stop3196"/>
      <stop style="stop-color:#fef8f0;stop-opacity:1;" offset="1" id="stop3198"/>
    </linearGradient>
    <linearGradient id="linearGradient3184">
      <stop style="stop-color:#ffff00;stop-opacity:1;" offset="0" id="stop3186"/>
      <stop id="stop3278" offset="1" style="stop-color:#c2c200;stop-opacity:1;"/>
    </linearGradient>
    <linearGradient id="linearGradient3162">
      <stop style="stop-color:#ff712d;stop-opacity:1;" offset="0" id="stop3164"/>
      <stop style="stop-color:#c53f00;stop-opacity:1;" offset="1" id="stop3166"/>
    </linearGradient>
    <inkscape:perspective sodipodi:type="inkscape:persp3d" inkscape:vp_x="0 : 526.18109 : 1" inkscape:vp_y="0 : 1000 : 0" inkscape:vp_z="744.09448 : 526.18109 : 1" inkscape:persp3d-origin="372.04724 : 350.78739 : 1" id="perspective9"/>
    <linearGradient inkscape:collect="always" xlink:href="#linearGradient3162" id="linearGradient3168" x1="68.365219" y1="49.144897" x2="71.127228" y2="103.3658" gradientUnits="userSpaceOnUse"/>
    <linearGradient inkscape:collect="always" xlink:href="#linearGradient3184" id="linearGradient3190" x1="25.113955" y1="50.974445" x2="27.066116" y2="88.251152" gradientUnits="userSpaceOnUse"/>
    <linearGradient inkscape:collect="always" xlink:href="#linearGradient3254" id="linearGradient3320" gradientUnits="userSpaceOnUse" gradientTransform="translate(-109.41769,-31.343736)" x1="0.48499516" y1="110.61037" x2="7.6509347" y2="137.54678"/>
    <linearGradient inkscape:collect="always" xlink:href="#linearGradient3293" id="linearGradient3323" gradientUnits="userSpaceOnUse" gradientTransform="matrix(0.964732,0.3709535,-0.3123284,0.9815622,-69.650969,-29.767528)" x1="13.725068" y1="136.08858" x2="0.07975442" y2="121.78559"/>
    <radialGradient inkscape:collect="always" xlink:href="#linearGradient3204" id="radialGradient3326" gradientUnits="userSpaceOnUse" gradientTransform="matrix(0.8034396,0.2333893,-0.2354054,0.945985,-116.27418,-7.5825645)" cx="36.493107" cy="94.618118" fx="36.493107" fy="94.618118" r="18.357039"/>
  </defs>
  <sodipodi:namedview inkscape:window-height="850" inkscape:window-width="1440" inkscape:pageshadow="2" inkscape:pageopacity="0.0" guidetolerance="10.0" gridtolerance="10.0" objecttolerance="10.0" borderopacity="1.0" bordercolor="#666666" pagecolor="#ffffff" id="base" showgrid="false" inkscape:zoom="4.2385321" inkscape:cx="-30.246292" inkscape:cy="44.769218" inkscape:window-x="-8" inkscape:window-y="-8" inkscape:current-layer="svg2"/>
  <path style="fill:none;fill-rule:evenodd;stroke:#000000;stroke-width:1;stroke-linecap:butt;stroke-linejoin:miter;stroke-miterlimit:4;stroke-dasharray:none;stroke-opacity:1" d="M 47.422074,17.222944 C 46.777254,32.283665 55.698384,86.809455 54.971864,102.8658 L 79.744584,102.8658 C 100.06155,94.840743 92.989264,75.029433 88.406204,70.426486 C 86.675964,68.688738 85.414104,66.411749 83.755414,64.409091 C 115.79668,24.885977 70.662794,2.4725862 47.422074,17.222944 z" id="path2384" sodipodi:nodetypes="cccscc"/>
  <path style="fill:none;fill-rule:evenodd;stroke:#000000;stroke-width:1px;stroke-linecap:butt;stroke-linejoin:miter;stroke-opacity:1" d="M 67.004334,36.097403 L 66.768394,50.489178 C 68.726984,49.49501 70.083344,44.562469 69.953464,43.470239 C 69.971414,42.380743 69.362524,37.953184 67.004334,36.097403 z" id="path2386" sodipodi:nodetypes="cccc"/>
  <path sodipodi:nodetypes="cccc" id="path2388" d="M 69.486184,76.451005 L 70.663894,88.156141 C 72.925604,87.175779 73.357864,82.342209 73.179514,81.508653 C 73.007024,80.664241 71.625044,77.040071 69.486184,76.451005 z" style="fill:none;fill-rule:evenodd;stroke:#000000;stroke-width:0.99999994px;stroke-linecap:butt;stroke-linejoin:miter;stroke-opacity:1"/>
  <path style="opacity:1;fill:url(#linearGradient3168);fill-opacity:1;fill-rule:nonzero;stroke:#000000;stroke-width:0.50000000000000000;stroke-linecap:round;stroke-linejoin:miter;stroke-miterlimit:4;stroke-dasharray:none;stroke-opacity:1" d="M 55.547254,98.277471 C 55.236284,90.37129 54.562964,83.393601 51.739554,58.818055 C 48.860324,33.756589 48.079134,25.5505 48.079134,20.366786 L 48.079134,17.57501 L 49.140754,16.952859 C 50.929254,15.904729 54.731434,14.511957 57.308804,13.960835 C 60.636884,13.249187 66.897974,13.192486 70.374584,13.842508 C 77.109014,15.101645 83.128744,18.125564 87.382594,22.386207 C 96.223064,31.240805 96.464204,43.881335 88.048834,57.310637 C 86.902914,59.139313 86.081714,60.299995 83.537684,63.686722 L 82.981904,64.426601 L 84.798054,66.871785 C 85.796944,68.216639 87.116184,69.900902 87.729704,70.614592 C 90.979014,74.394434 92.679684,79.191189 92.698154,84.628184 C 92.709394,87.938547 92.264034,89.893936 90.838734,92.792081 C 89.968704,94.561165 89.361964,95.412446 87.959194,96.832272 C 86.054434,98.760188 83.649654,100.44036 81.215184,101.5442 L 79.704214,102.22931 L 67.703444,102.22931 L 55.702684,102.22931 L 55.547254,98.277471 z M 71.742244,88.014484 C 72.894184,86.860976 73.483094,85.322819 73.710794,82.872867 C 73.847254,81.404519 73.797554,81.140352 73.106204,79.659698 C 72.691894,78.772388 72.013964,77.692059 71.599684,77.258961 C 70.851484,76.47678 69.129734,75.437727 68.923524,75.643937 C 68.864274,75.703177 69.110214,78.736399 69.470034,82.384422 C 69.960154,87.353399 70.201604,89.01719 70.432584,89.01719 C 70.602154,89.01719 71.191504,88.565972 71.742244,88.014484 L 71.742244,88.014484 z M 67.610814,50.55464 C 68.154334,50.032382 68.772884,49.26887 68.985384,48.857947 C 69.786404,47.308953 70.492494,44.793094 70.489064,43.500217 C 70.481434,40.623959 69.209534,37.320986 67.446724,35.599647 L 66.554924,34.728826 L 66.400364,37.254944 C 66.182334,40.818286 66.207714,51.504203 66.434204,51.504203 C 66.537824,51.504203 67.067304,51.076899 67.610814,50.55464 L 67.610814,50.55464 z" id="path2390"/>
  <path style="opacity:1;fill:url(#linearGradient3190);fill-opacity:1;fill-rule:nonzero;stroke:#000000;stroke-width:1;stroke-linecap:round;stroke-linejoin:miter;stroke-miterlimit:4;stroke-dasharray:none;stroke-opacity:1" d="M 5.375,8.125 C 4.6279313,8.2207141 3.9094576,8.4513049 3.1875,8.65625 C 5.456639,21.820736 7.73232,34.98414 9.9973741,48.149302 C 10.123249,48.943285 10.249125,49.737267 10.375,50.53125 C 12.271318,50.537376 14.171032,50.491425 16.0625,50.65625 C 16.576751,50.614234 16.393428,51.25292 16.46875,51.5625 C 17.885417,68.791667 19.302083,86.020833 20.71875,103.25 C 20.909541,104.71073 21.074898,106.17584 21.34375,107.625 C 22.360791,107.40394 23.33952,107.05097 24.3125,106.6875 C 25.661686,106.11929 26.968459,105.45865 28.28125,104.8125 C 29.585762,104.00479 30.908831,103.22079 32.125,102.28125 C 33.132251,101.52004 34.194137,100.82578 35.125,99.96875 C 36.335573,98.953608 37.544598,97.93556 38.6875,96.84375 C 39.606578,96.04342 40.458946,95.171173 41.275219,94.267453 C 42.321758,93.062891 43.321057,91.817184 44.248371,90.518336 C 45.485007,88.865645 46.687623,87.188336 47.875,85.5 C 48.602218,84.378989 49.171738,83.166508 49.875,82.03125 C 50.478643,80.82377 51.023306,79.587961 51.489494,78.320789 C 51.942667,77.117084 52.439721,75.92917 52.865617,74.715648 C 53.194462,73.706187 53.450963,72.673595 53.706298,71.643539 C 53.958471,70.527399 54.223118,69.412582 54.432103,68.28778 C 54.575515,67.256251 54.752447,66.228549 54.8125,65.1875 C 54.964697,63.482858 55.056147,61.773442 55.09375,60.0625 C 54.963469,58.282116 54.792104,56.503359 54.497882,54.741819 C 54.254244,53.064219 53.855926,51.412834 53.43267,49.772927 C 52.830825,47.613293 52.184729,45.466307 51.5625,43.3125 C 50.90798,41.667947 50.304442,40.000466 49.53125,38.40625 C 49.083034,37.406784 48.627261,36.409212 48.0625,35.46875 C 47.572917,34.46875 47.083333,33.46875 46.59375,32.46875 C 45.947917,31.427083 45.302083,30.385417 44.65625,29.34375 C 43.683608,28.069183 42.728866,26.778825 41.663275,25.579106 C 40.190329,23.810047 38.661746,22.088624 37.125,20.375 C 36.326474,19.608785 35.520131,18.850838 34.659096,18.154382 C 32.618897,16.421442 30.450246,14.830702 28.125,13.5 C 26.687792,12.732985 25.18452,12.100027 23.689806,11.455524 C 22.749876,11.049551 21.780403,10.719283 20.79395,10.44649 C 19.75127,10.101055 18.686173,9.8346314 17.610821,9.6129315 C 16.239869,9.3285258 14.870219,9.0379035 13.5,8.75 C 11.025242,8.48372 8.5416698,8.3125967 6.0625,8.09375 C 5.8322911,8.0865321 5.6036542,8.0979402 5.375,8.125 z M 29.5,51.78125 C 30.29188,52.358154 31.208423,52.731158 32,53.3125 C 32.832085,53.861874 33.538801,54.558325 34.25,55.25 C 35.009041,55.869302 35.612453,56.650883 36.1875,57.4375 C 36.65015,58.310687 36.925675,59.275718 37.053027,60.253294 C 37.091432,61.15524 37.066436,62.07144 36.78125,62.9375 C 36.52009,63.87152 35.972961,64.697305 35.360482,65.437781 C 34.666982,66.280138 34.528602,66.492531 33.747516,67.257802 C 33.254576,67.810463 33.057685,68.459115 32.313447,68.456845 C 32.063447,67.081845 31.813447,66.090233 31.563447,64.715233 C 31.401118,63.619991 31.127518,62.589761 31.023525,61.50653 C 30.908865,60.439829 30.737519,59.29617 30.564114,58.237104 C 30.381678,57.12288 30.103631,56.005664 29.919721,54.919728 C 29.753917,53.808721 29.550025,52.838929 29.40625,51.78125 L 29.4375,51.75 L 29.5,51.78125 z" id="path3174" sodipodi:nodetypes="cscccccsssssccssssssccccccccccccccscscccccccccsccccscccc"/>
  <path sodipodi:type="star" style="opacity:1;fill:#ff3300;fill-opacity:1;fill-rule:nonzero;stroke:#ff3506;stroke-width:1;stroke-linecap:round;stroke-linejoin:miter;stroke-miterlimit:4;stroke-dasharray:none;stroke-opacity:1" id="path3216" sodipodi:sides="5" sodipodi:cx="-138.01949" sodipodi:cy="72.076843" sodipodi:r1="7.7448373" sodipodi:r2="3.0827904" sodipodi:arg1="1.6565098" sodipodi:arg2="2.2986665" inkscape:flatsided="false" inkscape:rounded="0" inkscape:randomized="0" d="M -138.68251,79.793248 L -140.07041,74.378433 L -145.56311,73.83077 L -140.8422,70.837531 L -142.01868,65.444425 L -137.7131,69.009316 L -132.9475,66.223857 L -135.00741,71.42032 L -130.88563,75.091917 L -136.46431,74.738616 L -138.68251,79.793248 z" transform="matrix(-0.8823459,0.5368512,0.4706013,0.8470114,-134.40303,97.24096)"/>
  <path transform="matrix(1.0709571,0,0,0.9912281,134.59886,-6.144108)" sodipodi:open="true" sodipodi:end="6.2822793" sodipodi:start="9.3313299e-125" d="M -88.35606,94.726189 A 17.871754,20.172077 0 1 1 -88.356067,94.707913" sodipodi:ry="20.172077" sodipodi:rx="17.871754" sodipodi:cy="94.726189" sodipodi:cx="-106.22781" id="path3234" style="opacity:1;fill:url(#linearGradient3320);fill-opacity:1;fill-rule:nonzero;stroke:none;stroke-width:0.97057062000000005;stroke-linecap:round;stroke-linejoin:miter;stroke-miterlimit:4;stroke-dasharray:none;stroke-opacity:1" sodipodi:type="arc"/>
  <path sodipodi:type="arc" style="opacity:1;fill:url(#linearGradient3323);fill-opacity:1;fill-rule:nonzero;stroke:none;stroke-width:0.97057062000000005;stroke-linecap:round;stroke-linejoin:miter;stroke-miterlimit:4;stroke-dasharray:none;stroke-opacity:1" id="path3306" sodipodi:cx="-106.22781" sodipodi:cy="94.726189" sodipodi:rx="17.871754" sodipodi:ry="20.172077" d="M -88.35606,94.726189 A 17.871754,20.172077 0 1 1 -88.356067,94.707913" sodipodi:start="9.3313299e-125" sodipodi:end="6.2822793" sodipodi:open="true" transform="matrix(0.9890923,-0.3459713,0.3147244,0.8997611,95.67702,-34.526475)"/>
  <path sodipodi:type="arc" style="opacity:1;fill:url(#radialGradient3326);fill-opacity:1;fill-rule:nonzero;stroke:#884400;stroke-width:0.97057062000000005;stroke-linecap:round;stroke-linejoin:miter;stroke-miterlimit:4;stroke-dasharray:none;stroke-opacity:1" id="path3301" sodipodi:cx="-106.22781" sodipodi:cy="94.726189" sodipodi:rx="17.871754" sodipodi:ry="20.172077" d="M -88.35606,94.726189 A 17.871754,20.172077 0 1 1 -88.356067,94.707913" sodipodi:start="9.3313299e-125" sodipodi:end="6.2822793" sodipodi:open="true" transform="matrix(1.0709571,0,0,0.9912281,134.4809,-6.14411)"/>
  <path style="fill:#ff3300;fill-opacity:1;fill-rule:evenodd;stroke:none;stroke-width:1px;stroke-linecap:butt;stroke-linejoin:miter;stroke-opacity:1" d="M 13.261979,83.83637 L 19.491716,83.954335 L 20.945316,78.35098 L 23.990966,83.777387 L 30.013056,83.836369 L 25.126756,88.024141 L 26.967406,94.217328 L 21.291416,90.914292 L 15.520849,95.632908 L 18.355936,87.788209 L 13.261979,83.83637 z" id="path3330" sodipodi:nodetypes="ccccccccccc"/>
<script xmlns=""/></svg>