<?xml version="1.0" encoding="UTF-8" standalone="no"?>
<svg
   xmlns:dc="http://purl.org/dc/elements/1.1/"
   xmlns:cc="http://creativecommons.org/ns#"
   xmlns:rdf="http://www.w3.org/1999/02/22-rdf-syntax-ns#"
   xmlns:svg="http://www.w3.org/2000/svg"
   xmlns="http://www.w3.org/2000/svg"
   xmlns:sodipodi="http://sodipodi.sourceforge.net/DTD/sodipodi-0.dtd"
   xmlns:inkscape="http://www.inkscape.org/namespaces/inkscape"
   version="1.1"
   id="svg2"
   xml:space="preserve"
   width="570.64001"
   height="1026.28"
   viewBox="0 0 570.64001 1026.28"
   sodipodi:docname="DragonBall-krillin-001.svg"
   inkscape:version="1.0.2 (e86c870879, 2021-01-15)"><metadata
     id="metadata8"><rdf:RDF><cc:Work
         rdf:about=""><dc:format>image/svg+xml</dc:format><dc:type
           rdf:resource="http://purl.org/dc/dcmitype/StillImage" /><dc:title></dc:title></cc:Work></rdf:RDF></metadata><defs
     id="defs6" /><sodipodi:namedview
     pagecolor="#ffffff"
     bordercolor="#666666"
     borderopacity="1"
     objecttolerance="10"
     gridtolerance="10"
     guidetolerance="10"
     inkscape:pageopacity="0"
     inkscape:pageshadow="2"
     inkscape:window-width="797"
     inkscape:window-height="480"
     id="namedview4"
     showgrid="false"
     inkscape:zoom="0.56222472"
     inkscape:cx="285.32001"
     inkscape:cy="513.14001"
     inkscape:window-x="0"
     inkscape:window-y="0"
     inkscape:window-maximized="0"
     inkscape:current-layer="g10" /><g
     id="g10"
     inkscape:groupmode="layer"
     inkscape:label="ink_ext_XXXXXX"
     transform="matrix(1.3333333,0,0,-1.3333333,0,1026.28)"><g
       id="g12"
       transform="scale(0.1)"><path
         d="m 2549.67,7659.83 c 16.89,-5.2 31.19,-15.59 50.01,-15.59 5.2,-13.63 20.14,-5.84 27.92,-12.99 64.31,-22.07 114.95,-77.28 174.71,-109.1 26.62,-43.51 70.79,-72.09 100.02,-114.95 l -3.25,-3.25 c 151.31,-209.11 196.12,-509.15 118.19,-766.98 39.61,9.74 86.38,-12.99 112.36,-40.26 69.49,-105.86 31.16,-257.18 -15.59,-364.99 -59.76,-111.7 -152.62,-237.69 -289.65,-249.38 -37.02,-71.43 -111.05,-116.89 -177.95,-149.37 -24.68,-18.18 -51.95,-29.22 -77.93,-43.51 1.95,-31.82 -5.19,-74.69 6.49,-106.51 35.72,-9.74 74.04,-13.64 109.11,-24.67 38.32,31.82 85.73,60.39 137.04,43.51 40.25,-11.69 55.84,-77.94 109.09,-65.6 86.39,-25.98 194.19,-18.83 270.82,-77.93 l 3.25,3.25 c 24.03,-25.33 30.52,-58.45 31.16,-93.52 11.05,-23.38 41.58,-29.22 62.36,-43.51 101.96,-67.55 109.74,-185.74 159.11,-280.56 11.69,1.3 1.94,-12.33 9.09,-15.58 15.59,-34.43 57.15,-42.22 62.35,-81.18 96.11,-127.94 187.68,-249.39 246.13,-392.91 23.38,-58.45 42.87,-118.2 56.5,-180.54 36.37,-144.82 72.74,-351.35 -31.17,-479.93 -55.85,-78.58 -142.88,-120.15 -218.21,-171.46 -51.31,-25.32 -103.91,-47.4 -162.36,-56.5 -19.48,-45.46 -72.09,-25.98 -102.61,-52.6 -29.87,-11.69 -55.2,-33.78 -93.52,-25.33 -6.5,-24.02 9.09,-59.1 -9.75,-80.54 9.1,-17.53 -7.14,-32.47 -5.84,-50 53.25,-49.34 18.19,-120.79 5.84,-177.95 18.84,-31.81 3.91,-85.06 13,-124.67 53.25,-88.34 93.51,-182.5 140.27,-274.08 7.15,-53.89 48.06,-94.81 62.35,-146.76 44.81,-77.94 61.05,-167.56 105.86,-246.14 66.25,-166.25 118.84,-342.9 171.44,-511.1 41.58,-172.11 59.76,-357.84 68.2,-539.03 55.19,-224.71 101.31,-472.8 81.18,-720.229 -10.39,-69.481 -38.97,-131.18 -59.1,-196.778 -14.28,-45.457 -41.56,-89.617 -43.51,-137.027 -14.29,-3.898 -11.04,-21.43 -18.83,-31.176 113.64,-50.664 219.5,-120.789 330.56,-177.293 69.49,-65.597 207.16,-103.906 214.96,-218.2147 -1.3,-9.0898 -9.09,-15.5859 -15.59,-22.0781 C 4210.28,12.7422 4140.14,8.20313 4083.65,6.90234 4051.82,-4.78516 4016.75,2.35156 3977.13,0.410156 3879.72,1.0625 3781.66,38.0664 3684.23,59.5039 c -91.57,15.5859 -188.98,45.4651 -286.39,46.7541 -93.52,9.101 -222.75,8.457 -287.05,96.769 -8.44,84.422 41.57,151.973 62.34,227.95 -42.85,18.195 -107.8,31.179 -114.94,90.273 -1.96,31.824 15.58,60.398 9.09,90.273 -125.34,112.356 -279.91,213.008 -327.32,374.071 -34.42,90.916 -53.25,188.336 -84.43,280.556 0,46.12 -22.72,83.13 -27.93,127.94 -44.16,36.37 -77.93,83.12 -81.17,140.29 9.09,53.89 -52.61,70.78 -52.61,121.43 -53.25,220.8 -101.3,444.22 -187.04,651.39 -42.86,85.71 -17.53,199.36 -100.01,268.21 -46.11,-73.38 -89.62,-139.62 -152.61,-205.88 22.09,-98.7 -70.78,-164.95 -87.03,-255.23 -5.19,-21.42 -15.58,-39.61 -15.58,-62.34 l -6.5,-6.49 c -33.76,-92.21 14.94,-216.91 -105.85,-261.72 -15.59,-4.55 -33.13,-14.3 -37.67,-31.17 3.25,-27.27 -19.48,-49.36 -3.25,-74.69 9.74,-101.31 -144.82,-131.84 -130.53,-237.04 5.19,-113.65 -128.59,-178.59 -131.19,-292.89 -16.89,-78.58 -46.76,-151.327 -105.86,-212.374 0,-23.379 -34.42,-15.578 -37.67,-37.012 -20.12,-3.898 -34.42,-29.23 -52.6,-31.172 -25.97,-12.343 -46.11,-38.964 -74.68,-44.16 -37.02,-42.871 -94.82,-55.207 -118.85,-109.109 -3.9,-31.82 28.57,-48.711 40.91,-77.934 29.23,-65.594 101.32,-140.926 46.76,-214.961 C 1176.77,343.953 1073.52,327.715 985.191,315.383 917.652,297.852 857.25,261.484 782.563,262.129 752.047,240.703 705.934,256.277 679.309,225.105 648.781,221.211 620.211,213.418 592.281,203.027 533.832,189.395 473.434,180.945 417.59,162.762 320.816,151.074 235.742,119.246 137.031,131.59 c -14.293,11.039 -31.828,1.945 -50.0076,12.344 -21.4336,3.242 -51.9531,3.242 -71.4375,22.082 C 7.14453,180.945 -5.19531,195.234 0,215.371 c 38.3164,59.746 88.3203,103.262 146.121,140.274 88.973,68.835 181.188,140.281 283.805,181.191 22.082,16.883 52.605,28.574 77.929,43.516 31.825,14.285 61.696,31.816 90.27,53.25 17.539,21.437 -5.195,41.562 -9.09,62.343 5.199,28.575 -5.195,56.504 -34.422,71.446 -11.687,8.429 -31.172,24.023 -37.015,40.265 -22.078,79.883 44.808,153.914 -9.743,227.954 -22.726,70.78 -6.496,140.92 -18.832,214.96 -0.648,86.36 -1.949,175.99 25.329,258.47 29.222,79.89 31.175,170.8 46.753,255.88 12.993,43.5 11.692,100.01 24.684,146.77 26.625,107.8 44.813,219.51 81.18,324.07 75.332,294.19 189.633,572.79 311.726,847.51 36.365,61.7 72.735,122.75 109.105,183.79 3.25,4.54 9.09,3.9 12.34,9.74 -9.09,19.48 -31.18,38.32 -46.76,50 -44.81,42.87 -57.798,109.76 -37.02,168.22 9.74,23.38 50.01,31.8 27.93,65.59 -18.19,59.74 38.31,124.04 -12.34,174.04 -12.34,62.35 -91.567,62.35 -124.692,112.35 -38.969,2.61 -83.125,14.29 -100.012,50.01 7.145,49.36 -53.906,53.9 -81.18,81.18 -127.941,111.05 -270.168,249.38 -292.898,420.83 4.547,29.23 17.535,57.8 12.34,87.03 30.527,110.4 63,222.75 131.191,314.97 33.77,57.15 93.516,111.7 127.942,168.21 102.605,107.15 233.789,191.58 336.399,292.9 22.08,37.01 39.62,76.62 77.94,100 36.36,50.01 81.17,85.08 131.18,115.6 21.43,40.92 51.3,81.83 102.61,83.78 62.99,33.12 133.13,48.06 199.37,72.09 64.95,-1.3 137.04,-0.65 199.38,12.34 7.8,20.78 29.88,32.47 46.76,43.51 62.99,14.93 112.35,-39.61 171.45,-24.68 12.99,5.84 42.22,-1.95 50.01,18.18 l 3.24,109.1 c -90.27,57.81 -204.57,97.42 -258.47,202.63 -114.3,-10.39 -181.19,85.73 -262.37,140.28 -3.9,13.64 -17.53,27.27 -31.17,31.17 -90.27,113 -114.95,272.76 -74.69,408.5 24.03,34.42 56.51,81.82 105.86,81.17 14.93,-1.29 25.98,-4.54 40.91,-9.09 -14.28,92.22 -23.38,170.81 -27.92,270.82 7.79,159.11 69.48,309.77 164.95,439.66 172.1,183.14 386.42,345.5 639.05,333.82 81.18,19.48 155.21,-11.69 230.54,-31.18"
         style="fill:#000000;fill-opacity:1;fill-rule:nonzero;stroke:none"
         id="path14" /><path
         d="m 2705.54,7537.73 c 41.57,-32.46 74.68,-66.24 115.61,-102.6 3.89,-16.24 27.91,-29.88 37.01,-46.76 68.19,-96.12 122.1,-202.63 134.43,-318.23 l 5.84,-5.84 c 28.58,-181.84 9.74,-370.83 -55.85,-533.19 -48.06,-174.04 -102.6,-345.5 -155.87,-517.59 -68.83,-130.54 -219.5,-169.51 -336.39,-237.05 -116.25,-64.94 -226.65,-13.64 -337.06,28.57 -137.68,50.01 -311.73,131.19 -346.15,292.9 -60.4,212.37 -156.52,410.44 -192.88,632.55 -66.25,274.71 48.06,526.69 249.38,707.88 111.7,97.42 246.78,166.91 392.91,196.13 25.98,9.74 57.79,5.85 83.77,15.59 142.88,0 288.35,-37.02 405.25,-112.36"
         style="fill:#f6d49a;fill-opacity:1;fill-rule:nonzero;stroke:none"
         id="path16" /><path
         d="m 2265.88,7531.89 c -1.96,-9.74 -6.49,-18.18 -15.59,-25.33 -12.34,3.9 -27.93,7.15 -33.77,18.84 -7.79,20.13 11.03,28.57 24.68,31.17 11.03,-1.3 23.37,-13.64 24.68,-24.68"
         style="fill:#000000;fill-opacity:1;fill-rule:nonzero;stroke:none"
         id="path18" /><path
         d="m 2437.32,7531.89 c -3.9,-8.44 -2.59,-22.73 -15.58,-25.33 -7.8,7.15 -22.09,-0.64 -27.93,12.99 0,12.34 -1.29,27.27 12.35,31.18 14.93,3.9 29.22,-5.2 31.16,-18.84"
         style="fill:#000000;fill-opacity:1;fill-rule:nonzero;stroke:none"
         id="path20" /><path
         d="m 2244.44,7528.64 c -2.6,3.9 -10.38,4.55 -3.24,9.09 h 3.24 v -9.09"
         style="fill:#ffffff;fill-opacity:1;fill-rule:nonzero;stroke:none"
         id="path22" /><path
         d="m 2263.28,7385.12 c -7.14,-12.99 -10.39,-27.28 -28.58,-27.93 -11.69,1.31 -26.63,8.45 -27.93,22.09 2.6,11.68 16.24,25.33 27.93,27.92 17.53,3.9 21.44,-10.4 28.58,-22.08"
         style="fill:#000000;fill-opacity:1;fill-rule:nonzero;stroke:none"
         id="path24" /><path
         d="m 2443.82,7388.37 c -2.59,-12.34 -7.14,-24.03 -15.58,-34.42 -17.54,-3.25 -33.78,3.24 -40.28,18.83 0.66,12.99 9.74,25.33 21.44,31.17 15.58,3.9 25.33,-5.19 34.42,-15.58"
         style="fill:#000000;fill-opacity:1;fill-rule:nonzero;stroke:none"
         id="path26" /><path
         d="m 2241.2,7379.28 h -9.09 c -2.6,5.84 3.24,11.68 9.09,9.09 v -9.09"
         style="fill:#ffffff;fill-opacity:1;fill-rule:nonzero;stroke:none"
         id="path28" /><path
         d="m 2424.98,7376.03 h -12.33 v 9.09 h 12.33 v -9.09"
         style="fill:#ffffff;fill-opacity:1;fill-rule:nonzero;stroke:none"
         id="path30" /><path
         d="m 2783.47,7204.57 c -1.29,-61.69 -31.17,-119.49 -50,-177.94 l -9.1,-9.09 c -22.08,20.78 -40.26,71.44 -81.17,55.85 -134.43,-49.36 -209.78,-194.83 -289.65,-301.98 h -12.34 c -1.3,35.06 16.24,70.79 27.93,105.85 h 3.24 c 59.1,141.58 116.9,309.13 258.48,392.91 57.8,31.82 125.99,-11.69 152.61,-65.6"
         style="fill:#000000;fill-opacity:1;fill-rule:nonzero;stroke:none"
         id="path32" /><path
         d="m 2128.84,7188.99 c 72.09,-109.1 77.93,-233.79 103.27,-361.73 -3.26,-27.28 3.89,-57.81 5.84,-87.03 l -5.84,-6.5 c -40.27,34.43 -37.67,91.58 -56.51,137.04 -7.79,3.89 -5.84,11.69 -5.84,18.83 -38.32,57.15 -68.19,139.63 -143.53,159.11 -61.04,7.15 -118.84,-18.18 -159.11,-62.34 -22.08,-11.04 -14.28,-50.66 -46.76,-40.92 -4.54,-2.59 -7.14,-9.09 -12.34,-9.09 -14.29,15.59 -7.79,34.42 -9.74,55.85 -7.79,28.58 -11.69,70.14 3.25,96.77 27.92,-5.85 -1.3,-35.07 12.34,-52.61 -10.39,98.07 75.33,167.56 150.02,211.72 28.57,8.44 63.64,19.48 93.52,6.49 l 71.43,-65.59"
         style="fill:#000000;fill-opacity:1;fill-rule:nonzero;stroke:none"
         id="path34" /><path
         d="m 2269.13,7239 c 5.83,-13.64 -5.21,-16.24 -5.85,-28.57 -7.14,-3.25 -12.99,-7.8 -22.08,-5.86 -5.2,11.05 -22.74,21.44 -15.6,34.43 10.4,15.58 33.13,15.58 43.53,0"
         style="fill:#000000;fill-opacity:1;fill-rule:nonzero;stroke:none"
         id="path36" /><path
         d="m 2762.05,7192.23 c -9.09,-44.8 -17.54,-89.61 -40.92,-127.93 -10.39,35.07 -51.95,35.07 -83.78,37.01 -20.78,-6.49 -40.26,-13.63 -56.49,-31.17 -54.56,-38.31 -103.91,-92.87 -149.38,-146.12 -8.45,5.2 -7.8,-24.68 -25.32,-31.17 57.14,119.49 98.71,274.71 233.79,351.99 48.06,18.18 96.11,-12.99 122.1,-52.61"
         style="fill:#000000;fill-opacity:1;fill-rule:nonzero;stroke:none"
         id="path38" /><path
         d="m 2434.73,7235.75 c 0.65,-14.94 0.65,-32.47 -15.59,-37.67 -13.64,0 -22.73,9.74 -31.18,18.83 -3.89,13 5.21,23.38 15.59,27.93 6.49,-1.95 25.98,6.5 31.18,-9.09"
         style="fill:#000000;fill-opacity:1;fill-rule:nonzero;stroke:none"
         id="path40" /><path
         d="m 2138.59,7123.4 c 33.77,-72.09 48.7,-151.97 59.1,-233.8 -37.03,72.74 -90.93,172.1 -181.2,190.29 -75.33,7.79 -124.04,-41.57 -174.05,-81.18 l 2.6,112.35 c 57.15,52.6 110.41,144.17 202.63,121.44 42.85,-25.97 67.54,-70.14 90.92,-109.1"
         style="fill:#000000;fill-opacity:1;fill-rule:nonzero;stroke:none"
         id="path42" /><path
         d="m 2811.4,7170.16 c 1.3,-14.29 -16.23,-23.38 -5.85,-37.67 1.95,7.79 7.15,16.89 15.6,18.84 7.78,-13.65 -1.95,-26.63 -3.26,-40.27 3.26,-6.49 9.1,1.3 12.35,3.24 9.74,-36.36 -27.93,-51.95 -27.93,-87.67 -13.63,-21.43 -33.78,-11.68 -50.01,-3.25 -20.78,14.94 11.69,31.18 9.75,50.01 7.79,38.32 19.47,74.68 37.01,109.11 5.85,-0.66 22.09,-3.25 12.34,-12.34"
         style="fill:#000000;fill-opacity:1;fill-rule:nonzero;stroke:none"
         id="path44" /><path
         d="m 2789.96,7098.72 -3.25,-15.59 3.25,15.59"
         style="fill:#ffffff;fill-opacity:1;fill-rule:nonzero;stroke:none"
         id="path46" /><path
         d="m 1792.43,6961.04 c -3.89,-3.25 -6.49,-7.79 -12.33,-5.84 -9.74,6.49 -3.25,20.13 -9.74,27.93 -3.25,-3.26 -6.5,-8.45 -12.35,-6.5 -1.29,20.78 -25.32,44.16 -3.24,62.34 l 9.74,-21.43 c 8.44,13.64 -5.84,39.62 12.34,46.76 15.58,-29.87 8.45,-69.49 15.58,-103.26"
         style="fill:#000000;fill-opacity:1;fill-rule:nonzero;stroke:none"
         id="path48" /><path
         d="m 2708.79,6758.42 c 42.21,-37.03 43.51,-90.92 71.43,-133.79 4.56,-68.19 8.46,-129.24 -15.59,-193.53 -21.41,-52.6 -57.13,-119.49 -118.19,-127.29 l -3.24,2.6 c 74.68,48.06 111.04,132.48 112.35,215.61 l 6.5,5.85 c -4.55,85.72 -16.25,192.23 -103.26,230.55 -32.48,2.59 -62.35,0 -93.53,-12.35 -3.24,3.9 -7.78,6.5 -5.84,12.35 39.61,23.38 111.05,37.67 149.37,0"
         style="fill:#000000;fill-opacity:1;fill-rule:nonzero;stroke:none"
         id="path50" /><path
         d="m 1917.13,6727.24 c -40.27,-31.17 -75.34,-81.83 -77.93,-137.03 l -6.5,-5.85 c 0.66,-60.39 -17.53,-124.68 15.59,-174.69 -1.95,-50.66 52.6,-70.14 81.18,-100.01 16.88,-5.85 38.96,-14.94 55.85,-3.25 7.79,-3.89 5.84,-11.69 6.49,-18.18 -14.29,-17.54 -39.61,-6.5 -59.1,-9.75 -107.15,45.47 -131.18,161.71 -127.93,264.97 12.99,72.74 25.98,164.31 105.85,190.28 l 6.5,-6.49"
         style="fill:#000000;fill-opacity:1;fill-rule:nonzero;stroke:none"
         id="path52" /><path
         d="m 1577.48,6568.78 c 8.44,-42.86 31.17,-85.73 40.26,-131.18 -39.61,36.36 -67.54,114.94 -127.94,90.27 -53.25,-60.4 -32.47,-155.22 -5.85,-221.46 4.55,-2.6 7.8,-12.34 15.59,-9.09 22.09,16.23 -7.79,33.77 -6.49,53.25 -6.5,47.41 -21.43,113.65 15.58,152.62 34.42,1.3 49.36,-38.32 68.85,-59.1 -20.14,-52.61 -30.53,-116.25 -3.25,-168.86 l 15.59,-21.43 c 22.07,14.95 -1.96,48.06 -3.25,71.44 -7.15,32.47 -0.65,66.24 6.49,96.77 24.03,-31.83 58.45,-64.94 68.19,-105.86 -40.91,-24.02 -25.33,-79.88 -21.43,-118.85 7.79,-80.52 128.59,-48.05 114.95,-140.27 7.79,-3.9 5.84,-11.69 6.5,-18.19 -86.38,-8.44 -148.07,66.89 -212.37,114.95 -107.81,89.62 -140.93,227.96 -127.29,358.5 12.34,7.78 1.3,25.32 9.09,34.41 16.89,29.23 35.72,53.9 68.84,65.6 31.17,-1.96 56.5,-17.54 77.94,-43.52"
         style="fill:#f6d49a;fill-opacity:1;fill-rule:nonzero;stroke:none"
         id="path54" /><path
         d="m 3117.28,6540.2 c 18.18,-150.02 -33.12,-287.05 -112.35,-405.24 -54.55,-59.1 -109.76,-96.77 -180.54,-114.95 15.59,48.06 25.98,98.72 43.5,146.12 9.1,35.72 18.84,70.79 27.93,106.51 4.55,-13.64 2.6,-30.53 15.59,-40.92 12.34,18.19 15.59,43.51 9.09,65.6 0,13.64 -18.17,27.92 -2.59,40.26 11.04,5.85 18.82,-8.44 21.42,-18.18 5.85,-75.34 -16.88,-137.68 -55.85,-193.53 l 9.1,-9.09 c 70.13,54.55 89.61,150.02 65.59,224.05 -1.96,25.97 -48.7,12.34 -27.93,43.51 5.21,16.89 23.39,44.17 43.51,37.67 38.97,-33.77 31.18,-103.92 18.84,-149.37 -3.25,-16.89 -27.92,-36.37 -9.73,-50.01 55.19,40.26 57.79,118.85 40.91,180.55 -2.61,25.97 -44.82,37.01 -40.91,56.5 23.37,16.23 42.2,46.75 75.33,40.26 4.54,-7.14 6.49,-16.24 15.58,-22.08 5.84,1.95 10.39,7.79 15.58,12.99 -7.14,14.29 -11.68,35.72 -31.16,40.26 -44.17,0.65 -73.4,-40.91 -103.26,-68.84 -5.2,40.27 26.62,64.3 25.33,103.26 40.9,-1.29 82.47,59.75 118.18,5.85 l 18.84,-31.18"
         style="fill:#f6d49a;fill-opacity:1;fill-rule:nonzero;stroke:none"
         id="path56" /><path
         d="m 2443.82,6503.19 c -5.84,-22.08 1.95,-49.36 -24.68,-62.35 -21.44,-4.54 -33.12,14.94 -37.67,31.18 -1.3,17.53 1.31,33.12 9.09,46.76 15.6,26.62 47.42,5.19 53.26,-15.59"
         style="fill:#000000;fill-opacity:1;fill-rule:nonzero;stroke:none"
         id="path58" /><path
         d="m 2222.36,6496.69 c 9.75,-20.78 -8.44,-38.31 -15.59,-55.85 -5.84,-7.79 -14.93,-11.04 -24.68,-9.74 -33.11,17.53 -20.12,54.55 -18.82,81.19 16.23,23.37 59.74,12.98 59.09,-15.6"
         style="fill:#000000;fill-opacity:1;fill-rule:nonzero;stroke:none"
         id="path60" /><path
         d="m 2194.44,6459.68 h -9.09 v 46.75 c 21.42,-5.19 10.39,-33.11 9.09,-46.75"
         style="fill:#000000;fill-opacity:1;fill-rule:nonzero;stroke:none"
         id="path62" /><path
         d="m 2419.14,6499.94 c 2.6,-12.34 -4.55,-20.78 -6.49,-31.17 h -6.49 c -6.51,11.04 -1.95,46.11 12.98,31.17"
         style="fill:#000000;fill-opacity:1;fill-rule:nonzero;stroke:none"
         id="path64" /><path
         d="m 2727.62,6284.98 c 18.84,7.79 51.31,11.69 68.2,-3.25 1.29,-4.54 -3.9,-6.5 -5.86,-9.09 l 40.28,-9.75 -5.85,-9.09 h -87.68 c -1.3,4.55 4.54,5.85 6.51,9.09 -26.63,3.26 -48.72,-5.84 -74.69,-3.24 l 15.58,12.99 c -23.38,9.74 -41.56,-18.18 -62.35,-12.99 28.58,27.28 64.3,37.02 102.61,40.92 l 3.25,-15.59"
         style="fill:#000000;fill-opacity:1;fill-rule:nonzero;stroke:none"
         id="path66" /><path
         d="m 1673.59,6290.82 c 7.79,-49.36 36.37,-90.27 44.16,-140.27 -22.73,9.74 -44.81,28.57 -50,53.25 -3.25,27.92 -10.39,59.09 -3.25,87.02 h 9.09"
         style="fill:#f6d49a;fill-opacity:1;fill-rule:nonzero;stroke:none"
         id="path68" /><path
         d="m 1879.46,6253.8 -15.59,-15.58 c 22.09,5.84 53.91,26.63 77.94,18.83 -9.74,-25.33 -44.82,-14.28 -62.35,-34.42 -9.74,-9.74 -22.08,-21.43 -34.42,-15.58 l -2.6,3.24 24.68,24.69 c -21.43,1.29 -33.12,-24.69 -50.01,-37.68 -3.24,-3.89 -1.29,-12.34 -9.09,-12.34 -5.84,3.9 -7.14,9.75 -6.49,15.59 25.98,22.08 34.42,59.1 72.09,59.1 l 5.84,-5.85"
         style="fill:#000000;fill-opacity:1;fill-rule:nonzero;stroke:none"
         id="path70" /><path
         d="m 1811.27,6231.72 c -11.69,-13.63 -13.64,-36.36 -34.42,-40.26 -1.95,14.29 11.04,30.52 21.43,43.52 4.55,-1.31 10.39,2.59 12.99,-3.26"
         style="fill:#000000;fill-opacity:1;fill-rule:nonzero;stroke:none"
         id="path72" /><path
         d="m 2677.61,6179.12 c 11.05,-37.01 -14.93,-66.24 -37.66,-93.52 -89.62,-99.36 -188.33,-170.15 -301.99,-218.21 -74.04,-12.99 -126.64,17.54 -187.04,46.77 -69.49,44.8 -133.13,82.47 -196.78,142.87 -10.39,21.43 -31.17,42.21 -18.18,68.84 43.51,48.7 105.86,22.73 164.95,34.42 156.53,4.55 309.79,37.01 464.35,55.85 41.57,-12.34 96.78,17.53 112.35,-37.02"
         style="fill:#000000;fill-opacity:1;fill-rule:nonzero;stroke:none"
         id="path74" /><path
         d="m 2652.95,6172.63 c 3.24,-25.98 -16.24,-46.76 -31.19,-59.11 -25.32,33.78 -62.99,49.37 -96.76,68.2 11.68,12.99 38.96,1.95 55.86,9.74 21.42,-3.9 61.69,7.14 72.09,-18.83"
         style="fill:#1f100c;fill-opacity:1;fill-rule:nonzero;stroke:none"
         id="path76" /><path
         d="m 2606.18,6094.69 c -15.58,-26.62 -39.62,-43.51 -59.75,-65.59 -94.17,-79.88 -211.72,-179.24 -336.41,-112.35 -78.58,35.07 -154.56,86.38 -218.21,143.52 58.45,105.86 197.43,66.9 292.9,93.52 81.83,7.15 186.39,31.17 264.96,-15.58 20.14,-11.04 37.68,-29.23 56.51,-43.52"
         style="fill:#e92d14;fill-opacity:1;fill-rule:nonzero;stroke:none"
         id="path78" /><path
         d="m 2022.98,6132.36 c -18.83,-15.58 -39.6,-33.12 -55.85,-46.76 -3.24,11.69 -12.99,29.22 0,40.27 18.84,1.3 35.07,9.09 55.85,6.49"
         style="fill:#1f100c;fill-opacity:1;fill-rule:nonzero;stroke:none"
         id="path80" /><path
         d="m 2300.29,5711.53 c 78.58,5.19 146.12,37.02 214.97,64.94 l 6.49,6.49 c -0.65,-41.55 -1.29,-90.91 12.34,-131.18 33.78,-23.38 76.63,-25.98 115.6,-37.02 l 65.59,-6.49 c -27.92,-31.82 -67.54,-75.34 -109.1,-93.52 -52.61,-5.2 -114.31,3.9 -146.78,-43.52 -9.08,-1.29 -14.93,-9.09 -22.08,-15.58 7.15,-9.09 18.19,-17.54 28.57,-9.09 29.89,38.97 67.55,33.77 111.71,40.26 -66.89,-66.89 -137.03,-126.64 -205.22,-190.28 -36.37,-14.93 -59.1,-68.84 -100.01,-43.51 -98.72,96.11 -200.03,177.94 -283.8,277.31 59.1,-3.25 123.39,-12.99 171.45,-52.61 l 12.34,12.34 c -49.36,73.39 -142.88,65.59 -218.22,74.69 -9.73,11.04 -27.92,24.67 -33.76,40.26 48.7,11.04 101.3,12.99 140.28,46.76 l 15.59,134.43 c 74.02,-27.28 146.76,-56.5 224.04,-74.68"
         style="fill:#f6d49a;fill-opacity:1;fill-rule:nonzero;stroke:none"
         id="path82" /><path
         d="m 2917.91,5589.43 c 91.57,-7.79 187.03,-15.58 258.47,-64.94 20.78,-159.76 18.19,-332.51 -22.08,-489.67 -6.49,-37.67 -22.73,-79.23 -33.78,-118.2 -15.58,25.98 -20.77,62.34 -31.17,93.52 -5.19,21.43 -14.29,40.91 -28.56,59.1 -5.84,-1.95 -10.4,-7.79 -15.59,-12.34 21.43,-48.71 32.47,-100.66 44.15,-153.27 -3.89,19.48 -16.87,35.73 -25.32,53.25 -5.84,0.66 -11.69,-0.64 -15.59,-6.49 l 6.51,-37.01 c 25.96,-82.49 84.42,-154.57 77.93,-246.15 -13,-25.32 -37.04,-38.3 -53.27,-62.34 1.95,36.38 9.1,101.32 6.5,149.37 -14.29,26.63 -11.69,60.4 -25.32,87.03 -11.69,20.78 -27.28,40.26 -27.93,65.59 -41.57,69.49 -111.06,102.61 -177.31,131.19 -140.92,20.13 -270.16,-20.14 -358.48,-121.45 -14.94,-40.26 -48.71,-71.44 -53.25,-115.6 -30.52,-78.58 -42.87,-195.48 3.25,-274.06 1.94,-20.13 20.78,-33.12 21.42,-53.25 60.41,-86.38 165.61,-139.63 268.22,-146.78 110.42,3.89 211.72,54.56 290.3,137.69 14.94,19.48 20.13,43.51 31.18,64.93 13.63,-90.26 17.53,-200.66 -15.59,-283.15 -13.64,-58.45 -42.86,-114.29 -40.92,-174.69 -28.58,-17.53 -37.66,-66.24 -81.18,-46.76 -19.49,29.87 -53.89,23.37 -74.68,50.01 -31.18,7.79 -64.3,10.39 -99.36,9.08 v 6.5 c 55.85,71.44 133.13,117.55 196.12,187.04 0.66,5.85 -0.64,11.69 -6.49,15.58 -59.1,-36.37 -105.85,-83.12 -161.71,-131.18 -36.37,-37.02 -72.74,-104.56 -137.03,-100.02 -5.84,-5.83 -14.94,-1.94 -22.08,-2.59 72.74,67.54 144.18,144.18 227.3,199.38 3.9,7.79 -5.85,10.39 -9.09,15.58 -86.37,-44.8 -162.35,-126.63 -233.8,-193.53 -22.73,-16.23 -51.95,-17.53 -77.93,-24.67 l 127.94,112.34 c -0.65,4.55 5.2,6.49 3.26,12.34 -28.59,11.05 -42.88,-29.87 -68.84,-34.42 -64.31,-51.95 -129.25,-112.35 -209.13,-118.2 -150.02,-20.77 -317.57,10.4 -467.59,9.1 -92.87,14.93 -176,53.9 -261.73,87.03 37.68,24.67 87.68,25.31 118.85,59.74 -12.99,7.8 -33.12,-1.95 -50.01,-3.25 -18.18,3.25 -29.87,-9.74 -46.75,-9.74 -80.53,-39.61 -159.77,-82.48 -243.54,-114.94 -24.03,-1.95 -49.36,3.24 -68.19,21.42 -70.79,94.82 -48.06,235.09 -43.52,352.65 27.29,74.03 57.15,147.42 77.93,224.05 2.6,58.45 -73.38,109.11 -18.83,162.36 15.59,31.17 31.18,62.34 46.76,93.52 -1.95,16.23 11.69,26.62 15.59,40.26 21.43,68.2 59.1,129.89 83.78,196.78 l -9.1,9.09 c -16.23,-7.14 -18.18,-31.17 -37.66,-34.42 12.98,-1.3 0,-8.44 3.24,-15.58 -18.18,-22.73 -26.62,-49.36 -40.26,-74.69 11.04,35.72 25.98,88.32 50,127.94 l -12.98,12.34 c -52.61,-58.45 -60.4,-140.93 -90.27,-211.72 0.64,-24.03 -13,-41.56 -12.34,-65.59 -53.9,125.34 -74.69,261.72 -81.19,398.76 6.5,34.41 0,62.34 6.5,96.76 9.1,33.12 3.9,80.53 18.83,115.6 78.59,37.02 166.26,53.9 249.39,81.18 56.5,-3.9 124.69,20.13 187.03,2.59 47.41,13.64 64.95,90.93 124.7,44.17 l 2.59,-22.09 c 124.69,-138.97 254.58,-268.21 392.92,-392.9 19.48,-23.39 40.91,3.89 59.09,9.74 130.53,95.47 242.89,220.16 368.22,320.82 18.84,26.63 50.02,37.67 59.11,71.44 -5.84,18.18 -24.67,3.9 -34.42,12.99 27.27,10.38 56.49,16.88 87.67,18.18 33.77,-25.33 59.75,-72.08 109.11,-62.35"
         style="fill:#f68319;fill-opacity:1;fill-rule:nonzero;stroke:none"
         id="path84" /><path
         d="m 2300.29,5471.23 v -6.49 c 32.47,-18.18 53.26,19.49 77.93,18.84 3.91,-12.99 -16.23,-8.44 -12.34,-21.44 -18.83,-26.62 -42.86,-21.42 -68.83,-22.07 -24.68,16.88 -42.87,42.21 -52.61,68.84 29.23,18.18 31.18,-33.13 55.85,-37.68"
         style="fill:#000000;fill-opacity:1;fill-rule:nonzero;stroke:none"
         id="path86" /><path
         d="m 1330.69,4910.13 c 9.1,-27.93 36.36,-60.4 12.99,-90.27 -7.8,-16.89 -24.03,-29.23 -22.09,-50.01 -76.63,-113.65 -177.94,-200.67 -277.3,-287.05 -31.17,-4.54 -56.501,55.2 -81.181,15.59 70.141,-44.82 144.821,-112.35 190.281,-183.8 -149.37,-44.8 -296.788,-183.13 -337.058,-336.4 v -6.49 c -148.715,100.01 -292.891,240.29 -342.898,408.48 6.492,70.79 23.382,137.69 37.671,205.88 68.84,178.59 196.125,350.04 358.485,473.44 53.902,44.16 114.949,99.36 174.7,143.52 72.09,79.88 126.64,183.14 221.46,237.05 -15.59,-174.05 -7.8,-370.83 64.94,-529.94"
         style="fill:#f6d49a;fill-opacity:1;fill-rule:nonzero;stroke:none"
         id="path88" /><path
         d="m 3447.2,5078.33 c 74.68,-83.13 136.38,-177.29 200.02,-268.22 2.6,-13.64 9.09,-25.97 18.19,-37.02 90.91,-192.87 171.44,-396.15 159.11,-623.46 -15.59,-41.56 -28.57,-84.42 -55.85,-121.44 -105.21,-107.15 -232.5,-186.39 -377.33,-209.11 -98.06,107.8 -181.84,224.7 -230.55,358.48 l 3.25,15.59 c 59.1,59.74 90.27,149.37 177.29,162.36 29.23,18.18 69.49,20.13 103.26,18.18 4.55,5.85 12.35,10.39 9.11,18.83 -32.49,25.33 -87.04,7.8 -121.46,-9.09 -25.32,-3.25 -47.4,-14.93 -68.83,-27.92 -53.26,77.93 -99.37,158.46 -137.04,242.89 2.6,35.72 44.82,53.9 37.67,93.52 -1.95,45.46 -26.62,90.27 -34.41,137.03 3.25,13.64 -7.81,41.56 9.08,53.25 19.49,54.55 32.48,111.05 53.26,164.96 23.38,120.79 32.47,239.64 27.93,368.23 138.97,-66.89 143.52,-227.95 227.3,-337.06"
         style="fill:#f6d49a;fill-opacity:1;fill-rule:nonzero;stroke:none"
         id="path90" /><path
         d="m 2733.47,5290.7 c -77.94,-147.42 -192.89,-279.26 -314.33,-408.5 -105.86,-108.45 -214.96,-209.11 -349.4,-268.22 -53.25,-12.33 -106.5,-42.21 -164.95,-22.08 -7.8,6.5 -18.83,12.34 -22.08,22.08 10.39,14.29 22.08,-5.19 34.42,-3.24 147.42,-15.58 253.28,87.67 364.33,168.2 173.4,161.71 314.98,325.36 439.67,517.6 5.85,1.94 9.09,-2.59 12.34,-5.84"
         style="fill:#000000;fill-opacity:1;fill-rule:nonzero;stroke:none"
         id="path92" /><path
         d="m 2814.64,5012.74 37.67,-2.6 -37.67,2.6"
         style="fill:#ffffff;fill-opacity:1;fill-rule:nonzero;stroke:none"
         id="path94" /><path
         d="m 2824.39,4984.81 c -20.14,1.3 -48.71,-16.88 -59.76,3.24 22.08,3.25 37.68,-6.48 59.76,-3.24"
         style="fill:#ffffff;fill-opacity:1;fill-rule:nonzero;stroke:none"
         id="path96" /><path
         d="m 2764.63,4950.39 c 42.22,-13.64 96.77,29.22 124.7,-12.34 -10.39,-24.67 -25.97,-52.6 -52.61,-65.59 -2.58,-10.39 5.2,-17.54 12.34,-24.68 33.12,-12.34 92.88,41.56 93.52,-22.08 L 2927,4729.59 c -50.01,-22.73 -114.3,9.73 -149.38,-40.92 6.5,-48.06 53.26,-10.39 83.78,-21.44 31.83,2.61 66.9,23.39 90.28,-6.48 -4.55,-53.91 -13.64,-105.87 -27.93,-155.87 -69.49,5.2 -130.54,-8.44 -196.13,-12.34 -15.58,-13.64 -22.08,-35.72 -18.83,-53.25 23.37,-18.19 57.8,-17.54 87.03,-12.34 -50.02,-5.2 -119.51,-19.49 -161.72,12.34 -6.5,27.28 52.61,45.46 9.1,68.84 -32.48,11.03 -74.69,-9.74 -109.11,5.84 -9.09,42.22 15.58,91.57 15.58,140.28 l 6.5,6.5 c 35.72,2.59 74.04,-10.4 109.11,3.24 16.88,11.04 50,-11.04 55.85,18.84 -3.25,11.68 15.58,21.43 0,31.16 -44.16,20.14 -95.46,-14.93 -143.53,5.85 l 3.26,118.85 c 21.42,13.64 49.35,9.74 68.83,27.92 -1.95,5.85 -7.79,10.4 -12.34,15.59 11.69,25.33 63,57.8 55.85,96.76 14.3,10.4 29.23,1.95 43.51,2.61 -2.59,-19.49 14.29,-25.33 27.92,-31.18"
         style="fill:#000000;fill-opacity:1;fill-rule:nonzero;stroke:none"
         id="path98" /><path
         d="m 3004.93,4882.2 c -16.23,31.18 -50.65,74.04 -90.27,96.76 38.31,-12.98 76.63,-57.79 90.27,-96.76"
         style="fill:#000000;fill-opacity:1;fill-rule:nonzero;stroke:none"
         id="path100" /><path
         d="m 2590.6,4882.2 c 1.29,-15.59 -22.73,-8.44 -31.18,-18.84 -19.48,-48.05 -14.94,-90.92 -12.99,-140.27 3.24,-11.69 4.54,-26.63 18.83,-31.17 3.25,1.29 -14.29,-2.6 -18.83,3.24 -33.77,-12.33 -25.33,-51.95 -31.17,-74.68 -6.49,-24.03 -9.09,-50.01 -12.33,-75.34 -14.3,44.16 -24.69,106.52 -15.6,155.87 1.3,94.81 44.16,212.37 143.53,249.38 l 34.42,22.09 c -11.69,-35.73 -45.46,-64.95 -74.68,-90.28"
         style="fill:#ffffff;fill-opacity:1;fill-rule:nonzero;stroke:none"
         id="path102" /><path
         d="m 2540.58,4922.46 c 3.25,17.54 22.74,23.38 34.42,34.42 l -34.42,-34.42"
         style="fill:#000000;fill-opacity:1;fill-rule:nonzero;stroke:none"
         id="path104" /><path
         d="m 2817.89,4916.62 c -18.18,-23.38 -24.03,-58.45 -62.34,-53.26 -21.43,-1.94 -53.26,-7.13 -71.44,12.35 14.94,23.38 29.88,40.91 49.36,59.09 29.22,-4.54 65.59,12.99 84.42,-18.18"
         style="fill:#000000;fill-opacity:1;fill-rule:nonzero;stroke:none"
         id="path106" /><path
         d="m 2964.67,4885.45 c 56.49,-83.78 49.35,-185.74 33.76,-283.8 -13.64,-25.33 -16.88,-58.46 -37.01,-77.94 11.68,51.96 14.28,95.47 21.44,149.38 -13,14.93 -27.93,25.97 -43.53,34.41 35.72,41.57 37.68,107.81 22.09,159.11 -12.99,18.19 -33.12,27.28 -53.25,18.84 -7.8,-7.15 -9.75,0.64 -18.84,-3.25 l 31.17,52.6 c 24.04,-7.14 29.23,-33.12 44.17,-49.35"
         style="fill:#ffffff;fill-opacity:1;fill-rule:nonzero;stroke:none"
         id="path108" /><path
         d="m 2783.47,4906.88 c -2.61,-26.63 -32.47,-13.64 -50,-18.83 h -5.85 c 3.9,28.57 37.01,22.73 55.85,18.83"
         style="fill:#ffffff;fill-opacity:1;fill-rule:nonzero;stroke:none"
         id="path110" /><path
         d="m 3048.44,4598.4 c -22.72,-59.1 -36.37,-127.29 -96.76,-164.96 -94.16,-66.24 -226.01,-99.36 -336.41,-44.16 -48.06,22.08 -107.81,64.29 -124.69,115.6 22.08,-34.42 57.15,-64.29 93.53,-77.93 24.02,-26.63 60.38,-24.68 90.26,-37.67 113.65,-12.99 250.03,19.48 318.22,127.94 65.6,92.87 53.25,229.9 27.92,337.06 41.58,-75.99 37.68,-170.8 27.93,-255.88"
         style="fill:#0e0e0e;fill-opacity:1;fill-rule:nonzero;stroke:none"
         id="path112" /><path
         d="m 2911.41,4828.95 c 1.3,-12.99 -1.3,-23.38 -12.33,-31.18 -23.38,-12.34 -56.51,-1.3 -81.19,-9.09 -11.04,9.09 -16.88,20.78 -18.83,34.43 31.82,11.68 66.89,14.93 103.27,15.58 l 9.08,-9.74"
         style="fill:#ffffff;fill-opacity:1;fill-rule:nonzero;stroke:none"
         id="path114" /><path
         d="m 2733.47,4816.61 c -3.9,-9.09 -3.25,-20.79 -12.34,-27.93 -23.38,7.79 -53.91,-16.24 -74.69,3.25 -5.19,-1.95 -9.73,-4.55 -15.58,-3.25 -6.5,9.74 -14.29,18.84 -15.59,31.18 24.03,22.73 78.58,7.78 105.86,12.33 l 12.34,-15.58"
         style="fill:#ffffff;fill-opacity:1;fill-rule:nonzero;stroke:none"
         id="path116" /><path
         d="m 2904.92,4773.09 c -0.66,-18.18 -24.68,-20.78 -37.03,-31.16 -31.17,5.84 -67.53,-15.59 -81.18,18.83 23.38,24.67 61.7,12.33 90.28,24.67 9.74,-4.54 20.78,-3.24 27.93,-12.34"
         style="fill:#ffffff;fill-opacity:1;fill-rule:nonzero;stroke:none"
         id="path118" /><path
         d="m 2715.28,4760.76 c 10.39,-35.07 -31.17,-23.38 -46.75,-34.42 -20.79,0.64 -43.53,-3.9 -56.51,15.59 v 21.43 c 33.12,6.49 61.04,0.64 93.52,6.49 l 9.74,-9.09"
         style="fill:#ffffff;fill-opacity:1;fill-rule:nonzero;stroke:none"
         id="path120" /><path
         d="m 2456.16,4763.36 -5.84,-46.76 5.84,46.76"
         style="fill:#ffffff;fill-opacity:1;fill-rule:nonzero;stroke:none"
         id="path122" /><path
         d="m 1808.02,4719.84 c -0.65,-5.85 0.65,-11.69 5.85,-15.58 5.19,7.79 15.58,0.64 15.58,-5.85 1.31,-7.79 -2.59,-16.89 3.25,-22.08 l 9.74,9.09 c 15.59,-10.39 21.43,-34.42 15.59,-52.6 -3.25,-1.95 -5.19,-7.8 -9.74,-6.5 -16.89,12.34 -5.85,35.07 -15.59,50.01 -2.6,-9.1 -12.99,-16.24 -21.43,-9.1 l -6.49,33.78 c -2.6,1.3 -4.55,-1.3 -6.5,-2.6 -9.1,5.85 -9.74,14.94 -9.1,24.68 4.55,12.34 14.3,1.95 18.84,-3.25"
         style="fill:#000000;fill-opacity:1;fill-rule:nonzero;stroke:none"
         id="path124" /><path
         d="m 2450.32,4623.07 -3.25,87.68 5.84,-84.43 z"
         style="fill:#000000;fill-opacity:1;fill-rule:nonzero;stroke:none"
         id="path126" /><path
         d="m 1312.5,4551.64 c -31.17,-55.2 -54.55,-113.65 -56.49,-180.54 0,-8.44 9.09,-28.58 -3.26,-37.67 5.85,-3.25 7.15,-5.2 6.5,-12.34 v -9.74 c -1.3,25.33 -29.87,26.62 -46.75,34.42 h -15.59 c -33.12,42.86 -61.7,96.11 -109.11,124.69 22.08,26.63 59.1,38.97 81.18,65.59 63,39.62 95.47,117.55 155.86,168.21 42.21,-44.17 1.3,-105.21 -12.34,-152.62"
         style="fill:#ffffff;fill-opacity:1;fill-rule:nonzero;stroke:none"
         id="path128" /><path
         d="m 2686.71,4695.16 -21.43,-3.24 21.43,3.24"
         style="fill:#ffffff;fill-opacity:1;fill-rule:nonzero;stroke:none"
         id="path130" /><path
         d="M 2575,4688.67 H 2587.35 2575"
         style="fill:#ffffff;fill-opacity:1;fill-rule:nonzero;stroke:none"
         id="path132" /><path
         d="m 2646.44,4688.67 h 12.35 -12.35"
         style="fill:#ffffff;fill-opacity:1;fill-rule:nonzero;stroke:none"
         id="path134" /><path
         d="m 2895.82,4632.82 c -3.24,-11.69 -4.55,-27.28 -18.83,-31.17 -35.07,-0.65 -79.88,-29.23 -99.37,12.33 -1.94,11.04 1.31,22.08 12.34,24.68 31.83,4.55 54.56,-3.24 83.79,13 7.79,-6.5 19.48,-7.8 22.07,-18.84"
         style="fill:#ffffff;fill-opacity:1;fill-rule:nonzero;stroke:none"
         id="path136" /><path
         d="m 2702.29,4638.66 c 0,-17.53 -9.74,-29.22 -24.68,-37.01 -29.22,3.89 -70.78,-24.69 -87.01,12.33 -5.21,55.21 55.84,12.99 77.93,34.42 12.99,1.3 24.67,-1.95 33.76,-9.74"
         style="fill:#ffffff;fill-opacity:1;fill-rule:nonzero;stroke:none"
         id="path138" /><path
         d="m 2883.48,4573.72 c -0.64,-16.88 -9.73,-33.12 -25.32,-40.92 -30.52,11.7 -82.48,-25.97 -96.11,22.08 8.43,32.48 43.5,13.64 68.19,27.93 19.47,0.65 37.65,0 53.24,-9.09"
         style="fill:#ffffff;fill-opacity:1;fill-rule:nonzero;stroke:none"
         id="path140" /><path
         d="m 2696.44,4554.88 c -10.38,-48.7 -66.87,-23.38 -100,-34.41 -18.18,6.49 -22.73,27.92 -15.58,43.51 25.32,11.69 74.67,4.54 100,6.49 l 15.58,-15.59"
         style="fill:#ffffff;fill-opacity:1;fill-rule:nonzero;stroke:none"
         id="path142" /><path
         d="m 3213.39,4330.18 c -45.46,-46.75 -68.18,-122.09 -137.03,-140.27 18.84,50 27.29,103.91 40.92,155.86 v 152.62 l -9.74,44.16 c 35.72,-70.79 54.55,-148.07 105.85,-212.37"
         style="fill:#ffffff;fill-opacity:1;fill-rule:nonzero;stroke:none"
         id="path144" /><path
         d="m 2602.93,4445.78 -46.76,31.17 h 59.1 z"
         style="fill:#ffffff;fill-opacity:1;fill-rule:nonzero;stroke:none"
         id="path146" /><path
         d="m 2908.17,4473.71 c -11.04,-8.45 -22.08,-16.89 -37.02,-15.6 v 15.6 h 37.02"
         style="fill:#ffffff;fill-opacity:1;fill-rule:nonzero;stroke:none"
         id="path148" /><path
         d="m 2808.8,4467.21 c -2.59,-12.33 -24.02,-5.85 -34.42,-12.33 l -34.42,3.23 c 8.44,12.35 31.82,1.32 43.51,12.35 l 25.33,-3.25"
         style="fill:#ffffff;fill-opacity:1;fill-rule:nonzero;stroke:none"
         id="path150" /><path
         d="m 2811.4,4430.2 c 5.19,-7.8 24.03,11.03 25.32,21.43 l 3.26,15.58 9.08,-27.92 -37.66,-9.09"
         style="fill:#ffffff;fill-opacity:1;fill-rule:nonzero;stroke:none"
         id="path152" /><path
         d="m 1240.41,4239.91 37.68,-31.17 c 2.59,-50.65 14.93,-97.42 43.5,-137.03 -100.66,-57.8 -194.82,-150.67 -233.79,-259.12 -24.03,-23.39 39.62,-59.11 -9.09,-55.86 -7.8,3.9 -5.84,11.69 -6.5,18.83 -38.31,60.4 -129.23,54.56 -155.862,124.7 3.246,42.87 15.59,83.13 37.672,118.19 -5.196,10.4 11.687,18.84 -3.247,25.33 -31.179,-16.23 -40.269,-51.95 -53.253,-81.18 -1.954,-22.72 -18.836,-39.62 -12.344,-65.59 -5.196,11.04 -20.133,-2.6 -27.926,6.5 -24.676,35.71 -5.195,78.58 5.852,118.19 63.636,138.98 196.118,253.93 349.398,268.22 l 27.91,-50.01"
         style="fill:#3e3d7e;fill-opacity:1;fill-rule:nonzero;stroke:none"
         id="path154" /><path
         d="m 3145.21,4152.89 c 42.86,-136.39 138.33,-250.68 227.31,-368.23 -31.19,-18.84 -64.3,-13.64 -93.53,-27.93 l -3.24,3.25 c -15.59,-22.08 -40.92,-19.49 -62.36,-27.92 -36.36,8.43 -46.75,49.35 -80.51,62.33 -25.34,-20.77 22.07,-38.95 21.42,-53.24 -98.07,62.99 -145.48,168.19 -158.46,277.3 10.39,32.48 54.55,51.31 71.44,81.18 7.78,9.1 16.88,15.59 27.92,18.83 8.45,-16.23 6.5,-38.96 27.93,-46.75 l 9.75,9.09 c -3.25,29.22 -20.14,60.4 -9.75,87.67 11.68,4.55 18.18,-9.09 22.08,-15.58"
         style="fill:#3e3d7e;fill-opacity:1;fill-rule:nonzero;stroke:none"
         id="path156" /><path
         d="m 1792.43,4034.04 c -39.61,5.84 -66.23,15.59 -105.85,12.34 -32.47,5.84 -62.35,16.24 -90.92,3.25 -3.25,-7.8 6.49,-10.39 9.74,-15.59 93.52,-12.99 180.54,-40.26 274.06,-24.68 l 18.84,-6.49 c 43.51,1.94 96.11,-1.95 137.03,-5.84 l -21.44,-68.85 c -46.11,7.8 -95.46,-3.25 -143.52,9.09 -133.78,9.1 -277.31,22.09 -405.25,72.09 -0.65,48.71 58.45,46.77 87.02,71.44 42.87,46.76 100.02,5.2 143.53,-9.09 l 96.76,-37.67"
         style="fill:#3e3d7e;fill-opacity:1;fill-rule:nonzero;stroke:none"
         id="path158" /><path
         d="m 2883.48,4015.21 c -1.3,-16.24 0,-33.12 -9.73,-46.76 -153.92,-41.57 -319.53,-46.77 -479.94,-55.86 l -65.59,77.93 c 74.69,-7.13 125.34,51.31 200.03,34.43 62.35,7.14 140.93,-6.5 192.88,34.42 54.55,-5.19 124.69,3.25 162.35,-44.16"
         style="fill:#3e3d7e;fill-opacity:1;fill-rule:nonzero;stroke:none"
         id="path160" /><path
         d="m 1399.53,4028.19 c 5.2,-17.53 20.13,-31.16 15.59,-53.25 -66.9,-71.43 -95.47,-164.31 -143.53,-246.13 -33.77,-75.33 -62.34,-156.51 -59.09,-243.54 -18.19,-16.24 -51.96,-25.97 -59.11,-55.86 9.75,-23.37 13.64,-49.36 24.69,-71.43 -9.75,-17.54 -32.48,-47.41 -50.02,-44.16 -41.56,26.62 -70.78,69.49 -87.02,112.35 1.3,22.72 6.5,43.51 24.68,59.1 8.44,-12.34 21.43,-29.22 25.33,-46.76 -15.59,-15.58 -17.53,-36.37 -15.59,-59.11 5.2,-2.6 9.74,-15.58 15.59,-5.85 17.53,11.7 1.3,44.83 31.17,43.53 7.15,-7.8 16.89,-18.19 24.68,-6.49 1.3,14.27 -9.75,31.81 -24.68,43.5 -50.66,88.98 -25.97,204.57 0,293.55 v 5.84 h 3.25 c 25.33,21.44 38.96,58.45 62.34,77.93 0.65,6.5 -1.29,11.7 -6.49,15.59 -27.28,-3.89 -39.62,-31.16 -59.1,-46.75 23.38,109.09 125.99,196.12 218.21,249.38 19.49,-7.8 35.72,-23.38 59.1,-21.44"
         style="fill:#f6d49a;fill-opacity:1;fill-rule:nonzero;stroke:none"
         id="path162" /><path
         d="m 2182.09,3943.77 15.6,-112.36 c -6.49,-7.13 -1.95,-27.27 -18.84,-21.42 -38.97,57.14 -65.59,125.99 -102.6,187.04 38.3,-28.58 125.33,37.01 105.84,-53.26"
         style="fill:#3e3d7e;fill-opacity:1;fill-rule:nonzero;stroke:none"
         id="path164" /><path
         d="m 2945.82,3990.52 c -0.64,-10.39 -10.37,-16.88 -15.58,-24.67 -22.07,-5.2 -18.17,18.18 -22.07,31.18 l 37.65,-6.51"
         style="fill:#ffffff;fill-opacity:1;fill-rule:nonzero;stroke:none"
         id="path166" /><path
         d="m 2297.05,3987.27 c -11.68,-24.67 -12.34,-67.54 -31.17,-96.75 0,-24.03 -8.44,-50.66 -27.93,-62.36 -23.38,-3.24 -5.84,27.29 -15.59,37.68 0.65,39.61 11.7,92.21 12.34,124.68 19.48,2.61 40.92,0.66 62.35,-3.25"
         style="fill:#3e3d7e;fill-opacity:1;fill-rule:nonzero;stroke:none"
         id="path168" /><path
         d="m 2203.53,3962.6 -2.6,27.92 h 5.84 z"
         style="fill:#ffffff;fill-opacity:1;fill-rule:nonzero;stroke:none"
         id="path170" /><path
         d="m 1524.22,3959.36 c 6.49,-12.34 22.73,-1.31 31.17,-9.1 -9.74,-42.86 -43.51,-83.77 -43.51,-134.42 -4.55,-38.32 -18.83,-85.09 0,-121.46 22.08,26.63 7.14,68.2 24.68,96.77 7.8,52.6 16.24,105.21 43.51,149.37 32.47,0.65 66.89,-12.98 103.27,-12.34 -16.89,-53.9 -42.87,-112.34 -50.02,-174.7 l -6.49,-5.84 c 5.85,-33.77 -11.69,-72.74 3.24,-106.51 11.7,-3.9 17.54,5.84 25.34,13 22.73,66.88 38.97,137.67 68.18,202.61 l -5.84,5.85 c -30.52,-28.58 -42.21,-70.79 -56.5,-109.11 2.6,60.4 29.88,111.06 46.76,165.61 96.12,-1.95 195.48,-22.08 292.89,-18.83 -112.99,-299.4 -211.06,-604.63 -292.89,-916.37 -20.78,-44.14 -22.73,-99.35 -34.42,-143.52 v -3.24 c -88.32,77.28 -205.23,138.98 -236.4,261.74 -32.46,69.47 -50.65,143.51 -68.83,218.19 -5.2,5.2 -12.34,14.29 -18.84,6.5 -9.73,-10.38 2.6,-27.28 3.25,-40.92 29.23,-135.73 65.59,-277.95 180.54,-370.82 44.17,-31.18 83.13,-72.09 131.19,-93.53 1.3,-53.24 -25.98,-83.77 -24.68,-137.02 -16.24,-79.88 -4.55,-159.77 -34.42,-233.8 3.25,-6.49 5.19,-13.63 12.34,-18.84 51.95,3.9 95.47,27.29 143.53,40.93 109.1,45.46 225.35,74.03 324.06,146.12 0.65,92.21 10.4,195.47 15.58,293.53 27.28,-49.35 66.9,-93.51 68.85,-153.26 8.44,-50.66 54.55,-139.62 -15.6,-180.54 l -22.07,-37.66 c -79.23,-41.57 -144.18,-116.9 -224.7,-155.87 -67.55,-45.46 -142.23,-75.34 -211.72,-118.2 15.58,-23.39 41.57,2.6 62.34,3.25 104.56,52.61 210.42,110.41 302.65,187.03 -56.51,-71.43 -122.1,-138.98 -190.29,-205.85 l 9.09,-9.11 c 53.9,31.83 92.22,68.2 137.03,114.95 12.99,-45.47 -33.11,-74.69 -49.36,-112.34 -42.21,-74.68 -46.1,-166.27 -68.83,-249.38 2.59,-12.35 -4.55,-29.23 -6.5,-43.52 1.95,-42.21 -1.3,-98.72 -52.6,-114.95 -117.56,-61.7 -231.86,-128.59 -352.65,-181.2 -6.49,-14.28 -31.17,-12.99 -21.43,-34.41 19.49,-19.49 35.07,-1.96 59.1,-2.6 46.11,14.29 90.27,33.11 137.03,46.75 57.15,11.7 50.66,85.74 103.26,96.13 -13.63,-110.41 -137.68,-126.65 -209.12,-183.8 -50.65,-19.49 -101.96,-37.01 -149.37,-65.59 l 9.1,-9.09 c 42.85,2.59 79.23,20.13 118.19,31.18 81.18,34.41 147.42,86.37 221.46,137.02 3.9,-25.33 -11.04,-45.47 -27.92,-59.1 l -87.03,-90.27 c -11.04,-51.96 -16.24,-105.86 -31.17,-155.86 -75.99,-129.24 -204.58,-227.95 -290.31,-352.65 1.31,-3.89 -2.59,-9.73 3.25,-12.332 h 6.5 l 171.45,181.192 c -25.33,-62.35 -23.38,-124.7 -62.35,-181.192 C 1335.88,871.941 1176.77,847.266 1081.3,708.289 1023.51,692.703 958.559,697.891 900.762,701.785 970.254,760.242 1047.54,807 1109.88,876.492 1098.84,902.461 1084.55,867.402 1068.96,870 970.254,799.863 892.32,699.852 766.984,695.945 c -56.504,47.403 -129.246,57.149 -190.285,93.528 -40.918,27.273 -2.601,74.687 3.246,109.101 -15.59,20.125 4.547,45.457 -6.496,68.192 -28.578,96.124 -33.769,205.864 -43.511,305.874 5.843,81.18 5.843,157.17 27.925,239.65 5.2,0 10.395,3.25 15.586,9.74 44.809,284.45 92.219,575.39 174.696,847.5 44.812,138.99 82.48,281.22 140.285,415 16.883,31.17 28.574,64.94 46.75,96.11 53.906,142.22 136.38,272.11 218.21,402 11.04,36.37 79.88,50.66 46.76,93.52 3.9,11.7 -5.19,24.68 -6.49,37.68 -5.85,5.18 -1.95,14.27 -3.25,22.07 19.48,19.48 51.3,23.39 62.34,49.36 -12.98,163.01 85.08,303.28 155.87,442.91 20.78,16.88 30.52,54.55 62.35,50.01 16.88,-9.74 35.71,-12.34 53.25,-18.83"
         style="fill:#f68319;fill-opacity:1;fill-rule:nonzero;stroke:none"
         id="path172" /><path
         d="m 2132.09,3687.89 c -16.23,-120.14 -32.48,-263.67 -34.42,-402 -16.88,-216.91 -29.23,-440.32 -37.01,-657.22 -84.43,-57.16 -184.45,-77.29 -274.72,-118.86 -48.06,-20.12 -97.41,-35.72 -149.37,-46.74 12.34,84.42 24.68,164.29 37.02,252.62 3.25,57.79 29.87,114.3 37.66,174.7 70.15,250.03 131.19,504.61 224.71,744.89 21.43,92.22 66.9,174.71 93.52,264.98 12.34,1.95 12.34,17.53 12.34,24.67 9.74,14.95 5.85,35.08 15.59,50.01 42.86,-88.32 118.19,-174.69 74.68,-287.05"
         style="fill:#3e3d7e;fill-opacity:1;fill-rule:nonzero;stroke:none"
         id="path174" /><path
         d="m 3110.79,3734.65 c 19.49,-14.29 40.26,-25.98 62.34,-33.77 18.19,-72.74 -1.29,-147.42 -43.5,-200.02 -47.42,148.07 -85.08,300.04 -183.81,427.32 -1.94,18.19 14.3,29.23 21.44,43.52 22.74,-86.38 66.25,-175.35 143.53,-237.05"
         style="fill:#f6d49a;fill-opacity:1;fill-rule:nonzero;stroke:none"
         id="path176" /><path
         d="m 2343.81,3928.18 c 143.52,-189.63 220.15,-411.75 330.56,-616.97 38.31,-92.86 75.99,-185.73 100.01,-283.79 11.05,-36.37 27.93,-70.79 34.42,-109.11 -79.23,-24.68 -164.96,-45.46 -224.69,-102.61 -30.54,-15.58 -54.56,-46.75 -84.44,-65.6 -32.47,307.2 -88.33,612.43 -168.2,904.03 -16.88,53.25 -38.32,113.65 -55.85,171.44 20.78,41.56 23.38,91.57 43.51,133.79 11.04,-3.9 20.12,-19.48 24.68,-31.18"
         style="fill:#3e3d7e;fill-opacity:1;fill-rule:nonzero;stroke:none"
         id="path178" /><path
         d="m 2914.66,3934.67 c 35.07,-85.06 95.47,-159.11 124.69,-246.78 34.42,-120.14 92.86,-238.34 87.02,-367.58 4.55,-3.25 7.15,-9.1 12.34,-9.1 22.08,14.95 1.95,35.72 12.34,55.86 16.88,7.14 19.48,-12.34 22.08,-22.08 -7.14,-88.33 45.46,-151.96 77.93,-224.05 72.09,-146.78 137.69,-296.8 196.14,-448.77 30.52,-46.11 42.21,-100 62.35,-150.01 58.45,-159.11 122.73,-316.27 162.35,-483.19 37.67,-183.13 42.22,-376.01 55.85,-561.1 5.85,-4.55 10.39,-12.33 18.84,-9.09 46.75,-281.21 134.42,-611.124 -15.59,-872.842 -5.85,-49.356 -18.84,-104.559 -68.19,-127.942 -20.78,-2.598 -37.67,4.555 -56.51,6.496 72.75,81.836 105.22,184.434 118.85,286.406 -4.54,3.887 -3.9,9.735 -9.74,12.989 l -18.83,-18.836 c -7.79,-58.449 -30.53,-109.758 -52.61,-162.356 -11.69,-42.218 -37.67,-78.586 -56.49,-118.203 l -52.61,-15.586 c 22.08,30.528 44.81,60.399 52.61,96.77 15.57,7.789 3.88,15.574 9.73,27.918 46.12,100.664 64.3,220.156 68.2,330.566 -5.21,4.539 -9.74,12.344 -18.19,9.09 -12.99,-14.941 -1.95,-39.617 -9.74,-55.848 -17.53,-142.882 -60.39,-282.511 -127.93,-408.496 -9.75,-27.929 -43.52,-23.379 -68.2,-27.929 l -18.83,2.609 c 19.49,9.734 45.45,16.883 53.25,40.906 l -9.74,9.094 c -38.32,-15.59 -72.09,-60.402 -118.2,-31.176 -32.47,16.242 -74.68,8.438 -105.86,27.922 -48.06,3.906 -113.65,-5.84 -143.53,37.676 6.5,20.769 -1.29,47.402 12.35,65.586 l 62.34,-40.918 c 16.89,11.043 -9.09,19.492 -9.09,31.179 -146.77,134.434 -339.65,268.868 -399.41,461.755 -27.92,65.59 -49.35,133.77 -62.34,205.86 -4.54,26.64 -14.93,51.97 -15.58,80.53 19.48,-31.82 46.76,-63 81.18,-77.93 14.94,29.23 -34.42,41.56 -43.52,65.6 -9.09,21.42 -25.97,38.96 -27.93,62.34 13.65,-2.6 -1.94,-11.7 9.1,-18.83 24.03,-33.13 57.8,-56.5 93.52,-68.19 29.23,-6.49 62.34,-3.25 87.67,9.09 19.48,14.28 -9.09,29.88 -18.84,34.42 -107.8,35.72 -232.48,90.27 -283.78,202.63 l -6.51,34.41 c 80.53,-40.91 155.87,-80.53 224.71,-143.53 24.68,-11.03 48.06,-25.97 74.68,-34.41 l 12.34,15.58 c -10.39,13.64 -27.28,12.34 -40.27,18.83 -90.27,86.38 -190.27,129.89 -289.64,193.54 -37.67,46.75 -42.22,107.8 -56.49,164.96 -14.95,87.02 -44.18,168.2 -59.11,255.87 -22.08,58.46 -30.52,122.1 -53.26,180.55 -22.08,68.83 -50.65,134.43 -74.68,202.62 31.17,-52.61 89.62,-76.63 134.44,-115.59 4.54,5.18 14.29,12.33 5.84,18.82 -81.83,63.65 -146.78,148.07 -192.88,237.06 -11.69,32.46 -38.97,57.79 -44.17,93.5 59.76,-76.62 109.76,-183.78 205.87,-224.71 3.9,3.9 8.44,7.16 6.5,13 -66.89,53.25 -122.1,128.58 -168.2,199.38 -28.58,32.47 -43.52,76.63 -72.08,112.35 0,307.18 -18.84,637.74 27.91,956.61 l 3.25,93.52 c 40.92,12.35 42.87,-22.72 53.26,-50.01 37.66,-131.83 75.98,-268.21 99.36,-402 44.81,-200.67 84.42,-414.98 103.26,-626.69 7.79,-0.66 11.04,-14.3 21.43,-9.1 -2.6,-5.2 -12.34,-7.8 -9.09,-15.58 8.44,-0.66 20.77,5.85 31.17,12.34 75.34,50.64 151.96,98.06 224.71,155.86 29.22,19.48 75.33,9.74 90.26,50 -26.63,36.37 18.83,42.22 34.43,68.84 70.14,75.99 146.76,154.57 196.13,242.89 1.94,5.85 -2.6,9.09 -6.49,12.34 -79.89,-85.08 -150.68,-179.24 -236.4,-264.98 -5.84,0.65 -1.95,10.4 -3.24,15.6 85.71,67.54 175.34,155.21 177.28,268.22 l -5.84,5.84 c -39.62,-87.68 -89.62,-176.65 -168.2,-242.88 -3.91,-3.91 -9.75,-3.91 -12.99,-9.1 -55.85,166.25 -111.71,335.1 -199.38,485.78 1.96,13.63 -11.68,20.78 -15.58,31.16 -56.5,120.79 -115.6,239.65 -183.79,355.89 51.96,-3.89 113.65,6.5 162.35,2.61 3.26,7.79 13.64,8.44 18.19,3.25 55.85,-90.28 57.15,-211.07 62.34,-314.98 l 6.51,-5.84 9.09,15.57 c 0,52.61 14.28,107.82 0,159.12 -5.85,52.61 -21.44,101.31 -46.77,146.13 23.38,13.63 40.27,-1.31 65.59,12.33 l 9.74,-2.59 c 53.91,-66.25 76.64,-144.82 96.13,-224.71 l 15.58,-96.77 12.99,-12.32 c 27.92,13.62 19.48,42.2 24.67,65.57 -3.24,48.07 7.81,101.32 -9.08,143.53 -3.26,51.96 -27.28,95.47 -56.51,137.03 -15.58,-12.99 2.6,-27.27 3.24,-40.91 21.44,-52.61 32.49,-113.65 34.44,-171.45 -18.84,73.38 -45.47,142.23 -93.53,202.62 50.66,25.33 117.55,24.03 174.71,40.92 l 12.33,-12.35"
         style="fill:#f68319;fill-opacity:1;fill-rule:nonzero;stroke:none"
         id="path180" /><path
         d="m 2194.44,3778.81 c -9.74,-200.68 -52.61,-407.19 -71.44,-607.86 6.5,149.36 8.44,319.51 33.76,470.18 13.65,27.28 -0.64,70.14 13,93.52 l 2.6,46.76 22.08,-2.6"
         style="fill:#3e3d7e;fill-opacity:1;fill-rule:nonzero;stroke:none"
         id="path182" /><path
         d="m 3188.71,3513.85 c -12.33,-32.48 16.25,-95.47 -37.66,-96.77 l -15.59,59.09 c 24.04,6.51 29.23,37.68 46.76,46.76 l 6.49,-9.08"
         style="fill:#f6d49a;fill-opacity:1;fill-rule:nonzero;stroke:none"
         id="path184" /><path
         d="m 1406.02,3344.99 c 33.78,-146.12 64.3,-310.43 214.97,-392.26 7.79,-20.79 36.37,-21.43 31.17,-43.52 h -9.74 c -110.4,53.27 -190.94,166.27 -214.96,283.17 -20.14,34.41 -20.79,76.62 -31.18,115.59 6.5,11.04 -13.63,35.08 9.74,37.02"
         style="fill:#000000;fill-opacity:1;fill-rule:nonzero;stroke:none"
         id="path186" /><path
         d="m 2163.27,2859.22 -37.67,59.09 c -7.8,69.49 12.99,147.43 18.83,214.96 5.2,38.96 15.59,83.78 15.59,127.95 -3.26,-127.95 6.49,-285.11 3.25,-402"
         style="fill:#f68319;fill-opacity:1;fill-rule:nonzero;stroke:none"
         id="path188" /><path
         d="m 2119.75,3155.36 h 3.25 v -12.35 h -3.25 v 12.35"
         style="fill:#ffffff;fill-opacity:1;fill-rule:nonzero;stroke:none"
         id="path190" /><path
         d="m 2116.5,3124.18 -3.24,-53.25 3.24,53.25"
         style="fill:#ffffff;fill-opacity:1;fill-rule:nonzero;stroke:none"
         id="path192" /><path
         d="m 2577.6,2778.04 c 24.68,12.98 42.86,39.6 68.84,50 -14.93,-12.99 -44.16,-37.66 -68.84,-50"
         style="fill:#ffffff;fill-opacity:1;fill-rule:nonzero;stroke:none"
         id="path194" /><path
         d="m 1598.9,1668.15 -52.6,-18.83 c 38.97,25.33 100.01,43.51 146.12,75.33 -16.23,-41.56 -63.64,-34.42 -93.52,-56.5"
         style="fill:#f6941a;fill-opacity:1;fill-rule:nonzero;stroke:none"
         id="path196" /><path
         d="m 2824.39,1309.67 c -18.84,3.24 -60.4,15.57 -84.43,37.67 26.63,-15.6 59.1,-18.19 84.43,-37.67"
         style="fill:#f6941a;fill-opacity:1;fill-rule:nonzero;stroke:none"
         id="path198" /><path
         d="m 835.172,670.625 c 38.965,7.793 78.578,0.645 115.601,-5.852 38.313,7.793 85.067,-3.25 121.437,9.094 -73.382,-38.965 -183.132,-54.551 -277.304,-46.758 -51.308,13.645 -103.91,22.079 -152.617,40.262 -9.09,18.184 -8.441,39.609 -12.992,59.746 77.285,1.953 124.691,-96.758 205.875,-56.492"
         style="fill:#3e3d7e;fill-opacity:1;fill-rule:nonzero;stroke:none"
         id="path200" /><path
         d="m 1112.48,605.027 c -37.67,-57.793 -113.652,-50.664 -177.3,-59.101 l -6.492,-5.836 c -59.743,4.539 -140.274,-12.992 -190.278,15.586 -31.18,23.375 -64.297,41.558 -99.371,55.847 13.641,40.262 50.66,-3.242 77.934,0 114.953,-35.722 262.375,-18.828 367.577,34.415 l 22.09,21.433 c 15.58,-14.285 9.09,-43.516 5.84,-62.344"
         style="fill:#ffffff;fill-opacity:1;fill-rule:nonzero;stroke:none"
         id="path202" /><path
         d="M 1187.81,474.492 C 1088.45,404.355 959.863,406.301 844.914,374.48 718.926,345.254 597.477,296.551 473.434,271.863 362.383,243.293 257.172,200.43 133.781,199.785 c -28.578,1.942 -55.8474,7.793 -81.1794,18.828 75.3324,83.125 172.7504,137.032 259.1284,205.867 94.813,61.047 192.231,114.297 292.891,162.364 66.887,-5.196 112.352,-61.051 174.695,-77.938 118.204,-3.242 229.904,-1.941 330.564,46.77 16.89,12.332 24.03,29.215 31.17,46.754 20.14,-38.309 49.36,-81.825 46.76,-127.938"
         style="fill:#444444;fill-opacity:1;fill-rule:nonzero;stroke:none"
         id="path204" /><path
         d="m 1196.91,446.563 c -0.66,-23.379 -26.63,-25.325 -40.27,-37.668 C 1002.73,334.211 820.234,329.668 660.473,268.621 503.961,237.449 350.695,178.348 190.285,175.098 h -9.742 c 10.391,1.953 24.676,-5.188 31.172,6.492 199.375,31.828 398.754,92.238 586.441,152.621 133.133,36.375 283.144,33.125 398.754,112.352"
         style="fill:#444444;fill-opacity:1;fill-rule:nonzero;stroke:none"
         id="path206" /><path
         d="m 3640.73,436.824 c -1.3,-39.609 -49.37,-33.113 -74.69,-46.765 -94.17,-17.532 -209.11,-11.68 -292.89,31.179 -3.9,4.543 -1.3,11.7 -6.49,15.586 72.73,-3.238 131.18,-42.859 209.11,-34.422 7.14,7.801 16.23,11.043 27.93,9.735 38.32,25.988 88.32,33.136 137.03,24.687"
         style="fill:#3e3d7e;fill-opacity:1;fill-rule:nonzero;stroke:none"
         id="path208" /><path
         d="m 3721.9,408.895 5.85,-6.493 c -47.41,-12.343 -76.63,-68.191 -121.45,-87.019 -36.37,-34.426 -87.01,0.652 -127.93,-6.496 -69.49,0 -127.94,16.242 -196.13,28.574 -20.13,18.184 -60.4,10.391 -65.6,46.758 l 18.83,37.019 c 12.35,-50.652 73.39,-47.41 115.61,-59.101 99.35,-16.883 198.73,-12.989 292.89,22.082 25.33,9.746 12.99,42.871 34.42,46.758 12.35,-11.692 27.92,-16.231 43.51,-22.082"
         style="fill:#ffffff;fill-opacity:1;fill-rule:nonzero;stroke:none"
         id="path210" /><path
         d="M 3890.11,318.633 C 4010.26,262.129 4144.04,197.82 4226.52,90.6758 L 4055.07,72.4883 c -157.18,20.1406 -316.28,37.0237 -464.35,80.5277 -131.84,13.656 -261.08,31.828 -383.17,68.847 -16.23,6.496 -33.78,11.035 -46.76,24.68 11.05,36.367 23.39,75.332 40.27,106.504 l 12.33,-18.836 c 53.91,-31.82 120.82,-40.266 177.95,-53.254 79.24,9.102 172.09,-33.769 242.89,12.344 37.02,35.066 77.93,74.035 124.69,90.918 46.77,-15.586 85.74,-46.758 131.19,-65.586"
         style="fill:#444444;fill-opacity:1;fill-rule:nonzero;stroke:none"
         id="path212" /><path
         d="m 3382.25,156.27 c 17.54,-9.094 38.96,-7.793 59.1,-12.336 -100.66,2.589 -192.89,14.281 -283.81,50 l -3.24,24.679 c 72.09,-38.965 151.97,-50.652 227.95,-62.343"
         style="fill:#444444;fill-opacity:1;fill-rule:nonzero;stroke:none"
         id="path214" /><path
         d="m 3914.78,62.7539 c 64.95,-9.0937 135.09,-22.0781 200.03,-12.3437 46.1,1.3007 78.57,7.7929 121.44,18.8359 -16.23,-16.2305 -48.71,-14.2969 -68.83,-18.8359 l -5.84,-6.4922 c -242.25,-22.0821 -473.44,56.492 -704.64,96.766 157.8,-3.243 298.09,-68.1957 457.84,-77.9301"
         style="fill:#444444;fill-opacity:1;fill-rule:nonzero;stroke:none"
         id="path216" /></g></g></svg>
