<?xml version="1.0" encoding="utf-8"?>
<!-- Generator: Adobe Illustrator 14.0.0, SVG Export Plug-In . SVG Version: 6.00 Build 43363)  -->
<!DOCTYPE svg PUBLIC "-//W3C//DTD SVG 1.1//EN" "http://www.w3.org/Graphics/SVG/1.1/DTD/svg11.dtd">
<svg version="1.1" id="Layer_1" xmlns="http://www.w3.org/2000/svg" xmlns:xlink="http://www.w3.org/1999/xlink" x="0px" y="0px"
	 width="612px" height="792px" viewBox="0 0 612 792" enable-background="new 0 0 612 792" xml:space="preserve">
<g>
	<polygon fill-rule="evenodd" clip-rule="evenodd" fill="#FFFFFF" points="209,300 401.756,300 401.756,492.756 209,492.756 
		209,300 	"/>
	<path fill-rule="evenodd" clip-rule="evenodd" d="M280.754,431.692c-16.121-6.144-29.976-17.432-38.013-33.961
		c-3.584-8.045-5.247-16.883-4.987-26.507c-1.837-1.045-4.896-0.26-5.688-2.272l7.351-5.513c1.228-5.772,3.935-10.935,6.734-16.097
		c-0.87-1.045-3.324,0.441-3.149-1.487c1.663-0.611,3.149-0.345,4.812-0.436c4.111-5.337,8.487-9.708,13.825-13.818V330.9
		c-4.11-3.5-7.61-7.351-12.338-9.623c-0.26-0.526,0.351-0.702,0.617-1.052c9.448,0.441,18.28,2.448,27.728,3.149
		c5.162-1.396,10.149-3.149,15.487-4.195c-0.266-3.416-2.454-6.565-3.935-9.624l0.345-1.052c4.376,3.759,9.448,5.863,13.909,9.623
		c7.96,0.176,17.935,0.961,25.812,3.325c14.52,4.812,29.039,12.597,38.402,25.89c9.968,12.688,13.818,30.273,9.448,46.545
		c1.662,1.137,3.76,1.221,5.507,2.358v0.61l-6.733,1.227c-6.913,16.064-19.843,27.404-35.149,33.61
		c-9.038,3.665-18.908,5.541-28.855,5.542c-0.916,0-1.827-0.017-2.743-0.048C299.385,436.936,289.719,435.109,280.754,431.692
		L280.754,431.692z"/>
	<path fill-rule="evenodd" clip-rule="evenodd" fill="#F9A86A" d="M372.736,358.018c4.986,10.147,6.562,24.319,2.712,35.517
		c-8.223-2.449-17.059-3.849-25.37-5.249c8.049-3.324,16.972-5.249,25.982-6.735c-1.05-2.537-4.986-2.013-7.523-2.974
		c-7.523-0.962-14.084-4.112-22.045-3.763c6.648-2.711,14.521-3.236,22.045-4.373l0.787-0.875l-0.787-0.875
		c-8.836,1.051-17.233,2.888-25.632,4.899c-0.7-8.486-6.123-16.971-14.085-20.383l-4.373-1.662
		c-1.75-6.648-1.663-13.997-3.412-20.645c-3.761-4.112-9.972-6.912-13.646-10.848c20.208-0.087,38.841,7.086,53.362,21.17
		C366,345.945,369.5,352.069,372.736,358.018L372.736,358.018L372.736,358.018z"/>
	<path fill-rule="evenodd" clip-rule="evenodd" fill="#F9A86A" d="M294.179,320.838c3.674,6.911,4.112,15.134,5.249,23.095
		c-5.249-6.736-9.797-13.734-15.921-19.508l-1.487-0.438C285.519,321.976,289.718,320.926,294.179,320.838L294.179,320.838
		L294.179,320.838z"/>
	<path fill-rule="evenodd" clip-rule="evenodd" fill="#F9A86A" d="M263.562,332.823c5.949,6.124,10.235,12.948,14.696,19.771
		c-3.324-0.088-6.474-2.8-9.885-3.849c-5.774-1.662-12.072-2.887-18.021-3.5c1.138-3.411,4.899-6.036,7.523-8.66
		C259.537,335.273,261.287,333.173,263.562,332.823L263.562,332.823L263.562,332.823z"/>
	<path fill-rule="evenodd" clip-rule="evenodd" fill="#FAAB56" d="M274.671,353.818v0.438c-5.861-0.962-11.372-1.4-16.971-2.362
		c-5.512,2.799-10.673,6.124-15.746,9.71c0.174-5.073,3.236-9.885,6.298-14.259C257.7,347.87,266.623,349.794,274.671,353.818
		L274.671,353.818L274.671,353.818z"/>
	<path fill-rule="evenodd" clip-rule="evenodd" fill="#F9A86A" d="M270.298,380.063c-5.337-0.088-9.711,1.399-13.647,4.374
		c-4.636,2.711-9.273,5.336-13.647,8.398c-0.174,0.524,0.088,1.05,0.612,1.05c8.136,0.175,16.359,0.349,23.707,2.362l-0.612,0.437
		c-3.149,0.787-6.999,0-9.885,1.399c-0.438,0.524,0.174,1.138,0.612,1.487c11.11,2.449,22.133,4.898,32.368,9.448
		c0.438,6.998-7.873,6.21-11.81,9.447l-7.523,5.861l-2.975-0.788c-17.408-11.983-30.268-30.53-27.906-52.313
		C250.876,371.577,260.499,376.038,270.298,380.063L270.298,380.063L270.298,380.063z"/>
	<path fill-rule="evenodd" clip-rule="evenodd" fill="#F6DBD3" d="M303.015,395.634h-0.438l-3.586-5.249
		c1.488-6.211,7.96-9.011,12.597-12.422C308.438,383.211,305.29,389.51,303.015,395.634L303.015,395.634L303.015,395.634z"/>
	<path fill-rule="evenodd" clip-rule="evenodd" fill="#F6DBD3" d="M305.989,400.883c-4.724-4.986,1.313-11.11,2.887-16.184
		l4.637-6.736C315.175,387.061,308.876,393.447,305.989,400.883L305.989,400.883L305.989,400.883z"/>
	<path fill-rule="evenodd" clip-rule="evenodd" fill="#F6DBD3" d="M295.229,388.898l-1.224-0.262
		c0.437-2.975,1.486-5.862,3.148-8.136C296.192,382.687,295.579,385.924,295.229,388.898L295.229,388.898L295.229,388.898z"/>
	<path fill-rule="evenodd" clip-rule="evenodd" fill="#F6DBD3" d="M322.784,393.885l-11.196,9.446c-0.438-0.611,1.049-1.836,0-2.711
		c-1.051,0.962-1.399,2.799-1.224,4.199h-0.438c-0.175-1.662-0.088-2.888,0.438-4.375c6.561-5.072,16.095-10.321,18.281-18.895
		C330.571,387.235,325.76,390.385,322.784,393.885L322.784,393.885L322.784,393.885z"/>
	<path fill-rule="evenodd" clip-rule="evenodd" fill="#F6DBD3" d="M287.268,391.784l0.176,2.101l-4.199-6.037
		c-0.7,0.263-1.313-0.087-1.837,0.788c0,2.012-1.399,4.199,0,5.948c1.575-1.225,0.087-4.287,2.1-4.898
		c1.662,2.624-2.624,4.374-1.663,7.348c-0.262,0.612,0.263,0.963,0.613,1.312c0.962-1.749,0.438-4.198,2.1-5.686
		c0.438,0.35,1.487,0.7,1.225,1.488c-0.612,0.612-1.225-0.438-1.662,0.612c0,0.35,0.438,0.525,0.612,0.875
		c1.05,0.175,2.362-1.575,2.537,0.349c-0.699,0.7-2.449,1.138-2.537,2.537l0.613,2.537c-0.875-0.264-1.05-1.05-1.837-1.663
		l-0.612,0.613c1.574,2.188,3.937,4.199,6.649,4.637l-1.05,1.836c-2.537-2.449-7.086-4.373-7.698-8.397
		c0.525-3.761-2.362-9.273,1.662-11.285C284.994,387.148,285.957,390.035,287.268,391.784L287.268,391.784L287.268,391.784z"/>
	<path fill-rule="evenodd" clip-rule="evenodd" fill="#F6DBD3" d="M292.342,394.934h0.788c-1.663,2.798,0.262,6.21,0.875,9.097
		c0.174,0.088,0.35,0.438,0.612,0.35l0.438-0.35c-0.525-2.8-1.924-5.687-1.049-8.397l0.437-0.438l0.35,1.837
		c2.537-2.099,4.375,2.712,6.298,3.85c-0.262,1.574,0.525,2.799,1.75,3.762c1.226-0.438,2.8-0.351,3.5,1.05l3.412,0.612
		c-0.175,0.087-0.263,0.262-0.263,0.438c2.013,1.137,2.799-1.925,4.637-2.363c1.487,1.051,3.149,0.438,4.023-1.224
		c-0.438-0.176-0.175-0.525-0.262-0.876l7.348-3.937c0.35,2.449-1.138,5.162-2.712,7.35c-2.537,0.438-5.424-0.088-7.522,1.224
		c-0.7,0.351-1.313-0.786-1.663,0.264l0.613,0.35c3.586-0.525,8.223,0.699,10.497-2.712c1.137-3.412,3.062-6.823,6.475-8.399
		l0.874,0.875l1.049-1.661l0.438,0.175l-3.148,3.324c-2.712,6.299-4.637,12.771-8.049,18.721c-5.248,3.149-9.534,9.448-16.358,8.223
		c-4.287-3.324-9.011-7.522-12.772-11.547c-1.487-7.873-3.937-15.571-3.587-23.969l1.05-2.976
		C292.167,390.035,285.957,396.42,292.342,394.934L292.342,394.934L292.342,394.934z"/>
	<path fill-rule="evenodd" clip-rule="evenodd" fill="#F6DBD3" d="M330.922,392.222c-0.614,0.087-0.264-0.962-1.051-0.613
		l-0.612,0.613c0.699-1.313,2.362-2.187,3.586-3.324C332.671,390.21,331.796,391.172,330.922,392.222L330.922,392.222
		L330.922,392.222z"/>
	<polygon fill-rule="evenodd" clip-rule="evenodd" fill="#F6DBD3" points="335.995,392.047 336.782,391.435 337.831,391.435 
		335.995,392.047 335.995,392.047 	"/>
	<path fill-rule="evenodd" clip-rule="evenodd" fill="#F6DBD3" d="M338.706,392.484c0.525,6.037,0,12.684-6.123,15.747
		c-1.837,1.05-3.411,2.712-5.598,2.888c-0.352-0.788,0.523-1.663,0.785-2.537c2.275-0.263,4.551-1.575,5.688-3.762
		c-2.1,1.05-0.35-1.75-1.487-2.275c-0.875,0.701-0.963,1.663-2.537,1.225c0.351-1.399,1.05-2.711,1.75-3.937
		c-0.088,0.7,0.787,1.051,1.225,1.663c0.787-1.138-0.963-5.162,2.274-4.2c0.524,0.963-0.175,2.45,0.7,3.325
		c-0.438,0.263-0.524,0.611-0.438,1.049l0.613,0.612c0.7-0.35,0.786-1.137,0.175-1.661l0.438,0.438l0.612-0.613
		c-1.75-0.524,0.088-3.761-1.838-4.81c0.263-0.7,0.963-0.35,1.487-0.438c0.787,1.487,0.088,3.849,0.614,5.248
		c0.523,0.264,0.699-0.437,1.047-0.612c0.176-2.537-0.262-4.811-1.485-6.735C337.219,392.747,338.007,392.747,338.706,392.484
		L338.706,392.484L338.706,392.484z"/>
	<polygon fill-rule="evenodd" clip-rule="evenodd" fill="#F6DBD3" points="286.219,398.083 287.881,397.033 288.144,399.133 
		286.219,398.083 286.219,398.083 	"/>
	<polygon fill-rule="evenodd" clip-rule="evenodd" fill="#F6DBD3" points="326.722,397.907 326.722,397.295 327.159,397.295 
		326.722,397.907 326.722,397.907 	"/>
	<path fill-rule="evenodd" clip-rule="evenodd" fill="#F9A86A" d="M373.523,398.783c-5.25,14.871-20.82,27.731-35.431,32.105
		c-3.673-4.374-7.959-7.787-12.421-10.76c-2.012-7.174,6.823-5.688,10.498-7.962c7.873-2.887,16.971-2.887,25.194-4.812
		c0.524-1.837-1.663-0.787-2.274-1.661l-7.611-1.663v-0.437C358.827,401.932,366.088,400.008,373.523,398.783L373.523,398.783
		L373.523,398.783z"/>
	<polygon fill-rule="evenodd" clip-rule="evenodd" fill="#F6DBD3" points="286.656,400.008 287.881,399.57 288.493,400.183 
		286.656,400.008 286.656,400.008 	"/>
	<path fill-rule="evenodd" clip-rule="evenodd" fill="#F6DBD3" d="M287.881,402.72c-0.788,0-0.962-0.438-0.788-1.225h0.788V402.72
		L287.881,402.72L287.881,402.72z"/>
	<path fill-rule="evenodd" clip-rule="evenodd" fill="#F6DBD3" d="M308.264,404.645h-0.175c-0.263-0.788-0.524-2.188,0.35-2.713
		l0.438-0.437C308.701,402.544,308.438,403.595,308.264,404.645L308.264,404.645L308.264,404.645z"/>
	<path fill-rule="evenodd" clip-rule="evenodd" d="M300.303,405.694c-1.75,0.438-3.587-0.263-5.249-0.613v-0.7
		C296.804,404.819,298.728,404.819,300.303,405.694L300.303,405.694L300.303,405.694z"/>
	<path fill-rule="evenodd" clip-rule="evenodd" fill="#F6DBD3" d="M331.184,405.081c-0.176,0.263-0.351,0.613-0.262,1.051
		c-0.264-0.7-0.964-1.313-1.838-1.051H331.184L331.184,405.081L331.184,405.081z"/>
	<path fill-rule="evenodd" clip-rule="evenodd" fill="#F6DBD3" d="M329.696,406.48c0.088,0.351-0.263,0.438-0.438,0.701v-0.875
		C329.434,406.218,329.521,406.394,329.696,406.48L329.696,406.48L329.696,406.48z"/>
	<path fill-rule="evenodd" clip-rule="evenodd" d="M302.839,408.581c-2.099,1.05-3.849-1.05-6.123-0.613
		c-0.7,0.351-1.837,0.351-2.537,0C296.804,405.78,299.953,407.793,302.839,408.581L302.839,408.581L302.839,408.581z"/>
	<path fill-rule="evenodd" clip-rule="evenodd" d="M312.637,409.631c-0.174,0.438-0.699,0.175-1.049,0.262
		c-0.7-1.05,0.438-1.749,0.875-2.537C313.774,408.144,311.238,408.843,312.637,409.631L312.637,409.631L312.637,409.631z"/>
	<path fill-rule="evenodd" clip-rule="evenodd" d="M306.602,408.581c-0.263,0.35-0.175,0.874-0.612,1.05
		c-0.7,0.175-1.05-0.263-1.487-0.351c0.35-0.524,1.487-0.699,1.049-1.487C305.989,407.881,306.252,408.318,306.602,408.581
		L306.602,408.581L306.602,408.581z"/>
	<path fill-rule="evenodd" clip-rule="evenodd" d="M322.522,408.405c-2.537,0.963-5.511,1.4-8.135,1.487
		c1.75-1.749,4.111-1.225,6.474-1.925C321.561,407.793,321.998,408.23,322.522,408.405L322.522,408.405L322.522,408.405z"/>
	<path fill-rule="evenodd" clip-rule="evenodd" d="M303.89,409.019c-0.175,0.262-0.438,0.262-0.7,0.262l0.262-0.699L303.89,409.019
		L303.89,409.019L303.89,409.019z"/>
	<path fill-rule="evenodd" clip-rule="evenodd" d="M308.643,414.985c1.437,0.256,2.823-1.086,4.433-0.281
		c1.225,0.875,1.225,2.449,0.262,3.324c0.875,0.787,0,1.837,0,2.8c-1.05,1.662-2.886,2.974-4.898,2.1l0.438,1.224
		c-1.05-0.35-1.837,0.613-2.712,0c0.438-0.699,1.486-0.35,1.662-1.05c-0.962-0.524-3.499,0.438-3.761-1.661
		c-0.176-1.925-0.7-3.762,0.437-5.512c1.137-0.263,2.362-0.175,3.324-0.787c-3.849-1.225,0.962-3.937,0.875-5.861
		c0.351,1.225-0.612,2.449-0.875,3.762c0.524,0.35,1.312,0.088,1.662,0.787l-1.225,1.05
		C308.391,414.929,308.517,414.963,308.643,414.985L308.643,414.985z"/>
	<path fill-rule="evenodd" clip-rule="evenodd" fill="#FFFFFF" d="M313.075,416.192c0.35,0.874-0.438,1.05-1.05,1.223
		c-0.787-0.699-1.313,0.438-2.1,0.438c-1.662-0.438-2.975,0-4.636-0.438v-0.437c2.361-0.7,4.899-1.05,7.347-1.399L313.075,416.192
		L313.075,416.192L313.075,416.192z"/>
	<path fill-rule="evenodd" clip-rule="evenodd" fill="#FFFFFF" d="M311.588,421.178l0.875-0.787
		c-0.263,0.699-2.188,2.537-3.587,1.225h-3.762l-0.175-1.838C305.29,423.015,309.663,421.353,311.588,421.178L311.588,421.178
		L311.588,421.178z"/>
	<path fill-rule="evenodd" clip-rule="evenodd" d="M342.188,463.232l-7.145,6.723c-0.32,0.246-0.665,0.345-0.985,0.298l-0.69-0.076
		l-1.479,7.708l10.99-13.372L342.188,463.232L342.188,463.232L342.188,463.232L342.188,463.232z M338.69,444.32
		c0.591-0.368,1.231-0.541,2.02-0.491l31.857,0.196c0.961-0.049,1.602,0.197,1.946,0.69c0.493,0.615,0.493,1.156,0,1.648
		l-14.708,18.224l9.288-7.438c0.69-0.271,1.307-0.148,1.848,0.346c0.493,0.319,0.616,0.812,0.395,1.429l-7.269,24.132
		c-0.122,0.417-0.271,0.738-0.566,0.935c-0.369,0.222-0.813,0.296-1.28,0.246l-31.538-0.197c-0.862,0.123-1.478-0.172-1.749-0.936
		c-0.172-0.788-0.05-1.403,0.369-1.772l-11.383,0.542c-0.665,0.123-1.182-0.049-1.552-0.418c-0.296-0.369-0.468-0.691-0.468-1.061
		l-6.775,0.567c-0.196,0.615-0.739,0.812-1.602,0.615l-3.154-0.615l-3.154,0.247h-5.47c-0.196,0.564-0.615,0.86-1.158,0.86h-6.43
		c-0.222,0-0.37-0.073-0.419-0.245l-8.377-0.051c-0.493,0.051-0.862-0.023-1.06-0.246c-0.295-0.147-0.418-0.395-0.467-0.737
		l-0.124-1.256l-0.764,0.738c-0.493,0.369-0.961,0.64-1.33,0.86c-0.936,0.371-2.095,0.617-3.523,0.641
		c-2.218,0.051-3.868-0.368-4.928-1.255l-3.4,0.394l-1.577,0.098c-0.396-0.048-0.641-0.22-0.69-0.491l-4.509,0.073l-2.193,0.739
		c-0.271,0.196-0.813,0.297-1.602,0.297c-0.32,0.023-0.641-0.223-0.986-0.716l-7.391,0.221c-0.37-0.047-0.69-0.171-0.985-0.467
		c-0.198-0.271-0.32-0.517-0.37-0.813l0.049-1.108c-0.789,0.616-1.528,1.059-2.168,1.354c-0.789,0.246-1.578,0.419-2.391,0.542
		l-0.813,0.024c-0.124-0.024-0.296-0.124-0.493-0.271c-0.246-0.345-0.369-0.614-0.369-0.91l-2.144-18.298l-0.937-0.17
		c-0.369-0.123-0.714-0.321-0.96-0.616c-0.197-0.247-0.321-0.542-0.37-0.911l-2.045-16.695l2.957-0.074
		c1.06,0.025,3.08,0.566,6.084,1.551c1.504,0.543,3.278,1.552,5.298,3.152c0-0.271,0.124-0.565,0.394-0.762
		c0.296-0.223,0.616-0.298,0.985-0.173l1.454,0.245l2.119,0.419c1.158,0.271,2.267,0.688,3.375,1.255
		c1.774,0.912,3.276,1.971,4.558,3.178l6.455,1.478l0.863,0.246c0.197,0.197,0.321,0.443,0.369,0.738l0.37,0.984
		c0.271-0.294,0.863-0.59,1.725-0.91c0.886-0.32,1.724-0.542,2.415-0.615c1.108-0.124,2.415,0,3.942,0.319
		c2.292,0.542,4.139,1.526,5.543,3.054c-0.123-0.296,0.05-0.591,0.444-0.911c0.37-0.319,0.714-0.492,0.911-0.542l5.125-0.023
		c0.419,0.023,0.715,0.146,0.912,0.368c0.197-0.295,0.542-0.468,0.985-0.491l5.593,0.023l3.4-0.319
		c2.021-0.123,3.4-0.123,4.189-0.074c1.034,0.024,1.97,0.37,2.906,0.886c0.049-0.27,0.099-0.516,0.172-0.688
		c0.173-0.419,0.567-0.665,1.282-0.69l6.849-0.344l8.008-0.813l0.319-0.666l0.788-0.566l9.19-2.167
		c0.543-0.222,0.962-0.172,1.231,0.124c0.346,0.245,0.421,0.64,0.248,1.182l-2.243,14.897l3.352-0.419l4.729-20.068
		C338.321,444.887,338.542,444.47,338.69,444.32L338.69,444.32L338.69,444.32z"/>
	<polygon fill-rule="evenodd" clip-rule="evenodd" points="342.88,460.523 334.428,468.453 339.922,445.208 373.185,445.577 
		358.129,464.341 358.943,467.543 370.079,458.727 362.64,482.638 330.781,482.44 344.899,464.588 342.88,460.523 342.88,460.523 	
		"/>
	<polygon fill-rule="evenodd" clip-rule="evenodd" fill="#FFFFFF" points="346.5,456.411 343.987,459.096 348.841,459.17 
		350.936,456.511 346.5,456.411 346.5,456.411 	"/>
	<polygon fill-rule="evenodd" clip-rule="evenodd" fill="#FFFFFF" points="354.09,469.34 352.242,471.901 354.188,471.901 
		357.17,468.848 354.09,469.34 354.09,469.34 	"/>
	<polygon fill-rule="evenodd" clip-rule="evenodd" fill="#E62229" points="370.326,446.858 356.43,464.341 357.341,467.616 
		353.275,468.207 349.826,472.959 354.754,472.959 367.147,462.321 361.284,481.332 333.27,481.011 346.427,464.169 344.48,460.45 
		349.507,460.45 353.843,455.156 346.427,454.984 336.203,464.958 340.956,446.734 370.326,446.858 370.326,446.858 	"/>
	<polygon fill-rule="evenodd" clip-rule="evenodd" points="322.354,453.58 317.675,480.174 330.116,479.609 332.383,467.124 
		328.096,467.911 330.683,451.536 322.354,453.58 322.354,453.58 	"/>
	<polygon fill-rule="evenodd" clip-rule="evenodd" fill="#E62229" points="327.283,468.971 329.624,452.768 323.267,454.294 
		319.152,479.287 329.549,478.673 331.299,468.231 327.283,468.971 327.283,468.971 	"/>
	<polygon fill-rule="evenodd" clip-rule="evenodd" points="313.363,455.526 312.304,477.835 322.65,476.16 323.661,466.483 
		319.325,467.543 319.72,454.787 313.363,455.526 313.363,455.526 	"/>
	<polygon fill-rule="evenodd" clip-rule="evenodd" fill="#E62229" points="318.364,468.649 318.783,455.771 314.546,456.265 
		313.363,476.652 321.985,475.595 322.65,467.716 318.364,468.649 318.364,468.649 	"/>
	<polygon fill-rule="evenodd" clip-rule="evenodd" points="305.675,455.969 301.462,479.116 308.016,480.027 308.978,473.896 
		309.616,479.535 316.813,478.795 311.712,455.796 305.675,455.969 305.675,455.969 	"/>
	<path fill-rule="evenodd" clip-rule="evenodd" fill="#E62229" d="M308.978,462.569l-0.962,5.022h1.207L308.978,462.569
		L308.978,462.569L308.978,462.569L308.978,462.569z M302.521,478.426l4.115-21.473l4.336-0.246l4.361,21.227l-4.878,0.394
		l-0.912-6.156l-1.431,0.099l-0.984,6.674L302.521,478.426L302.521,478.426L302.521,478.426z"/>
	<path fill-rule="evenodd" clip-rule="evenodd" d="M293.085,457.002l-0.099,8.768l1.084,1.083l0.863,12.706
		c3.966,0.173,6.431,0.223,7.341,0.1c0.69-0.123,1.529-0.469,2.391-1.084c0.936-0.689,1.478-1.354,1.602-2.045
		c0.196-0.787,0.271-1.551,0.246-2.339c-0.05-0.861-0.246-1.552-0.591-2.093l-1.307-2.266c1.282-1.427,2.045-2.486,2.267-3.152
		c0.148-0.542,0.246-1.429,0.271-2.781c0-1.405-0.074-2.339-0.271-2.881c-0.295-0.788-0.739-1.479-1.331-2.168
		c-0.813-0.961-1.749-1.6-2.785-1.944c-1.059-0.37-2.044-0.567-2.957-0.616l-2.291,0.122L293.085,457.002L293.085,457.002
		L293.085,457.002z"/>
	<path fill-rule="evenodd" clip-rule="evenodd" fill="#E62229" d="M305.282,459.908c1.256,1.279,1.478,3.448,0.567,6.452
		c-0.32,1.108-1.306,2.119-3.006,2.979l1.527,1.771c0.444,0.543,0.74,1.036,0.912,1.431c0.247,0.615,0.37,1.329,0.32,2.14
		c-0.049,0.913-0.418,1.775-1.182,2.588c-0.74,0.788-1.479,1.23-2.218,1.353c-0.961,0.173-3.055,0.173-6.282,0l-0.666-12.262
		l-1.109-1.033l-0.171-7.512l5.1-0.419c1.355-0.073,2.537,0.123,3.571,0.591C303.458,458.356,304.32,458.973,305.282,459.908
		L305.282,459.908L305.282,459.908L305.282,459.908z M298.579,461.829l0.32,4.531c0.862-0.739,1.233-1.648,1.208-2.758
		C300.057,462.493,299.516,461.878,298.579,461.829L298.579,461.829L298.579,461.829L298.579,461.829z M299.615,475.546
		c0.616-0.321,0.862-0.74,0.813-1.282c-0.05-0.491-0.419-0.935-1.036-1.379L299.615,475.546L299.615,475.546L299.615,475.546z"/>
	<polygon fill-rule="evenodd" clip-rule="evenodd" points="281.407,456.88 279.485,480.101 287.419,480.174 287.493,478.746 
		288.527,480.273 294.269,480.273 294.269,456.953 288.429,456.88 288.183,460.352 286.335,456.953 281.407,456.88 281.407,456.88 	
		"/>
	<polygon fill-rule="evenodd" clip-rule="evenodd" fill="#FAE62A" points="289.513,458.11 292.962,458.11 293.283,479.239 
		289.168,479.362 286.926,474.855 286.507,479.067 280.644,478.918 282.392,457.865 285.842,457.865 289.094,464.636 
		289.513,458.11 289.513,458.11 	"/>
	<path fill-rule="evenodd" clip-rule="evenodd" d="M279.485,464.882l0.493-5.638c-1.774-2.045-3.746-3.275-5.839-3.718
		c-1.601-0.37-2.981-0.468-4.188-0.296c-1.182,0.196-2.415,0.664-3.696,1.429c-1.109,0.737-1.971,1.575-2.488,2.462
		c-0.37,0.615-0.739,1.648-1.158,3.054c-0.37,1.354-0.666,2.855-0.814,4.554c-0.22,1.971-0.171,3.694,0.076,5.173
		c0.197,1.502,0.566,2.658,1.059,3.446c0.419,0.64,1.109,1.38,2.094,2.218c0.961,0.762,2.021,1.353,3.252,1.797
		c1.28,0.442,2.513,0.688,3.696,0.688c1.108,0,2.045-0.196,2.833-0.565c0.542-0.246,1.159-0.664,1.774-1.281
		c0.641-0.615,1.257-1.306,1.798-2.117c0.69-1.108,1.158-2.191,1.355-3.202c0.296-1.452,0.494-4.037,0.616-7.755L279.485,464.882
		L279.485,464.882L279.485,464.882z"/>
	<path fill-rule="evenodd" clip-rule="evenodd" fill="#FAE62A" d="M278.918,459.244c-2.636-2.167-4.977-3.227-7.022-3.227
		c-2.341,0-4.484,0.813-6.455,2.414c-0.689,0.616-1.306,1.649-1.798,3.128c-0.542,1.501-0.837,3.348-0.96,5.49
		c-0.148,2.636-0.025,4.629,0.369,6.031c0.542,1.973,1.725,3.448,3.572,4.484c1.824,1.009,3.499,1.551,5.051,1.551
		c1.208,0.05,2.192-0.247,2.956-0.813l2.021-1.6c0.788-0.788,1.305-1.602,1.601-2.562c0.443-1.43,0.665-2.364,0.665-2.782
		l0.147-5.59l-8.623-0.888l0.098,3.817l3.844,0.395c0.616,1.821-0.147,2.512-2.341,2.094c-1.675-0.272-2.833-0.765-3.351-1.479
		c-0.615-0.764-0.788-1.993-0.492-3.693c0.443-2.732,1.749-4.088,3.843-4.014c1.528,0.049,2.513,0.911,3.006,2.511l3.031,0.445
		L278.918,459.244L278.918,459.244L278.918,459.244z"/>
	<polygon fill-rule="evenodd" clip-rule="evenodd" points="262.806,479.535 269.753,478.943 264.284,454.738 257.755,453.211 
		253.542,478.869 261.13,479.116 261.303,474.117 262.806,479.535 262.806,479.535 	"/>
	<polygon fill-rule="evenodd" clip-rule="evenodd" fill="#FAE62A" points="261.87,472.171 260.563,472.27 259.849,476.852 
		254.674,477.194 258.37,454.492 263.396,455.649 268.078,478.131 263.396,478.549 261.87,472.171 261.87,472.171 	"/>
	<polygon fill-rule="evenodd" clip-rule="evenodd" points="261.056,463.603 260.637,467.247 261.623,467.247 261.056,463.603 
		261.056,463.603 	"/>
	<path fill-rule="evenodd" clip-rule="evenodd" d="M250.338,449.001c-0.961-0.296-2.144-0.544-3.671-0.838l-1.503,31.396
		l8.032-0.148l0.493,0.641l7.367-2.831l-4.854-8.249c2.414-2.166,3.695-4.876,3.868-8.126c0.147-3.521-1.331-6.601-4.435-9.259
		C254.354,450.503,252.581,449.64,250.338,449.001L250.338,449.001L250.338,449.001z"/>
	<path fill-rule="evenodd" clip-rule="evenodd" fill="#FAE62A" d="M258.469,460.45c-0.05,3.274-1.454,5.91-4.188,7.905l5.075,8.372
		l-5.568,2.19l-2.267-5.638l-0.074,5.22l-5.519,0.173l1.404-29.524c0.493,0.222,1.109,0.418,1.848,0.591
		c1.404,0.319,2.785,0.886,4.188,1.747c1.305,0.788,2.415,1.823,3.276,3.079C257.877,456.289,258.493,458.259,258.469,460.45
		L258.469,460.45L258.469,460.45z"/>
	<path fill-rule="evenodd" clip-rule="evenodd" d="M252.753,460.523l-0.247,3.694c0.789-0.196,1.232-0.738,1.282-1.601
		C253.813,461.706,253.492,461.018,252.753,460.523L252.753,460.523L252.753,460.523z"/>
	<path fill-rule="evenodd" clip-rule="evenodd" d="M241.099,446.489c-2.637-1.281-5.47-2.02-8.55-2.267l1.922,15.07l2.094,0.32
		l2.267,19.428c4.804-1.279,7.933-3.816,9.437-7.634c1.207-2.928,1.897-5.466,2.143-7.632c0.296-2.339,0.074-4.557-0.616-6.747
		c-0.69-2.241-1.848-4.31-3.4-6.183C244.794,448.902,243.021,447.424,241.099,446.489L241.099,446.489L241.099,446.489z"/>
	<path fill-rule="evenodd" clip-rule="evenodd" fill="#FAE62A" d="M245.682,451.955c1.28,1.601,2.192,3.521,2.71,5.688
		c0.714,2.88,0.739,6.009,0.049,9.332c-0.986,4.95-3.868,8.496-8.624,10.54l-2.168-18.715l-2.144-0.32l-1.773-12.978
		c1.355,0,2.956,0.32,4.853,0.986C241.247,447.424,243.587,449.271,245.682,451.955L245.682,451.955L245.682,451.955z"/>
	<path fill-rule="evenodd" clip-rule="evenodd" d="M241,459.121l0.838,7.017c1.724-0.887,2.538-2.216,2.488-3.938
		C244.302,460.77,243.193,459.736,241,459.121L241,459.121L241,459.121z"/>
	<path fill-rule="evenodd" clip-rule="evenodd" d="M279.657,462.913c1.971,0,3.647,0.689,5.051,2.092
		c1.38,1.38,2.095,3.079,2.095,5.049s-0.715,3.646-2.095,5.048c-1.404,1.378-3.08,2.093-5.051,2.093c-2.02,0-3.694-0.715-5.1-2.093
		c-1.405-1.402-2.094-3.078-2.094-5.048s0.689-3.669,2.094-5.049C275.963,463.603,277.638,462.913,279.657,462.913L279.657,462.913
		L279.657,462.913z"/>
	<path fill-rule="evenodd" clip-rule="evenodd" fill="#FAAB56" d="M273.498,470.054c0-1.698,0.616-3.176,1.798-4.358
		c1.183-1.183,2.661-1.797,4.361-1.797c1.676,0,3.154,0.614,4.336,1.797c1.208,1.183,1.774,2.66,1.774,4.358
		c0,1.675-0.566,3.152-1.774,4.333c-1.182,1.208-2.661,1.823-4.336,1.823c-1.7,0-3.178-0.615-4.361-1.823
		C274.114,473.206,273.498,471.729,273.498,470.054L273.498,470.054L273.498,470.054z"/>
	<polygon fill-rule="evenodd" clip-rule="evenodd" fill="#EE2D2F" points="279.534,466.558 280.397,469.191 283.131,469.191 
		280.915,470.792 281.751,473.379 279.534,471.777 277.317,473.379 278.18,470.792 275.963,469.191 278.672,469.191 
		279.534,466.558 279.534,466.558 	"/>
	<path fill-rule="evenodd" clip-rule="evenodd" d="M377.92,449.475v-3.76h1.669c0.335,0,0.589,0.034,0.764,0.103
		c0.175,0.067,0.314,0.186,0.419,0.357c0.104,0.171,0.156,0.359,0.156,0.567c0,0.267-0.088,0.491-0.26,0.675
		c-0.173,0.183-0.439,0.299-0.8,0.349c0.132,0.063,0.231,0.125,0.3,0.188c0.145,0.133,0.282,0.299,0.411,0.499l0.651,1.022h-0.621
		l-0.498-0.781c-0.146-0.226-0.265-0.397-0.359-0.518c-0.094-0.12-0.179-0.203-0.252-0.251c-0.075-0.048-0.15-0.081-0.228-0.101
		c-0.056-0.012-0.148-0.018-0.276-0.018h-0.577v1.668H377.92L377.92,449.475L377.92,449.475L377.92,449.475z M378.419,447.376h1.069
		c0.228,0,0.405-0.024,0.532-0.069c0.13-0.049,0.228-0.124,0.294-0.227c0.066-0.104,0.1-0.216,0.1-0.338
		c0-0.178-0.064-0.324-0.193-0.438c-0.129-0.115-0.334-0.173-0.611-0.173h-1.19V447.376L378.419,447.376L378.419,447.376z"/>
	<path d="M382.642,447.578L382.642,447.578c0,0.855-0.364,1.63-0.952,2.189c-0.585,0.557-1.393,0.901-2.281,0.902h-0.004h-0.001
		c-0.892,0-1.699-0.346-2.284-0.903c-0.587-0.56-0.951-1.332-0.951-2.186v-0.003v-0.002c0-0.854,0.364-1.628,0.952-2.188
		c0.585-0.558,1.392-0.902,2.281-0.903h0.003h0.002c0.891,0.001,1.699,0.347,2.284,0.904c0.587,0.559,0.95,1.331,0.951,2.186
		V447.578L382.642,447.578z M382.29,447.579L382.29,447.579v-0.004c0-0.754-0.322-1.438-0.841-1.933
		c-0.522-0.497-1.245-0.805-2.043-0.806h-0.002h-0.003c-0.797,0.001-1.519,0.309-2.04,0.805c-0.52,0.495-0.842,1.18-0.842,1.935
		v0.002v0.003c0,0.754,0.322,1.438,0.841,1.932c0.521,0.497,1.245,0.806,2.043,0.806h0.001h0.004c0.797,0,1.519-0.308,2.04-0.805
		C381.968,449.019,382.29,448.334,382.29,447.579L382.29,447.579z"/>
	<path fill-rule="evenodd" clip-rule="evenodd" fill="#F6DBD3" d="M300.984,431.692c-2.025-4.338-4.205-8.639-5.756-13.227
		c-1.662-2.273-4.72-4.026-4.376-7.085l-0.871,2.884c-0.961,3.239-0.441,7.175-2.104,10.064c-0.871-0.617,0-1.578-0.176-2.448
		c0.176,1.486-1.136,1.312-1.656,2.097h1.045v0.611c-0.175,1.747-1.396,3.5-2.539,3.935l-0.26-0.175l-0.61,0.877l-0.442-0.436
		c0.526-2.363,1.487-4.727,2.974-6.565l0.442,0.442v-0.442c0.084-0.344,0.701-1.136,1.045-0.785l1.052-6.299
		c-6.124,2.363-12.507,4.987-17.059,10.5c4.534,2.291,9.215,4.464,14.08,6.052c3.489,1.14,7.074,1.979,10.765,2.344l-0.743-2.344
		l-1.004-3.169l0.435-0.351c0.741,1.109,1.321,2.283,1.741,3.52c0.276,0.813,0.484,1.652,0.623,2.52
		c1.312,0.877,3.76,0.091,4.812,0.61C301.947,433.774,301.47,432.732,300.984,431.692L300.984,431.692z M316.52,431.692
		l3.294-10.863c-3.851,2.538-7.61,5.947-11.376,8.396c-0.962-0.352-2.533,0.701-2.884-0.877l-0.266,0.175
		c-2.883-2.707-5.506-5.947-8.571-8.747l5.52,11.916l1.655,3.571h2.448c-0.059-1.338,0.386-2.548,1.013-3.571
		c0.277-0.451,0.589-0.866,0.909-1.24c0.227,0.399,0.209,0.814,0.087,1.24c-0.304,1.065-1.259,2.209-0.698,3.396l7.786,0.175
		L316.52,431.692L316.52,431.692z M335.498,431.692c0.166-0.063,0.332-0.128,0.497-0.194c-2.714-4.195-7.435-7.345-10.936-9.884
		l-1.052,4.813c0.267,1.746,0.617,2.363,2.104,2.799c-0.153,0.863,0.343,1.669,0.545,2.467c0.146,0.575,0.138,1.146-0.375,1.734
		c-0.724-0.925-2.091-0.854-2.649-1.734c-0.152-0.242-0.245-0.558-0.244-0.985c0.01-0.081,0.01-0.168,0.01-0.255
		c-0.007,0.09-0.01,0.174-0.01,0.255c-0.02,0.16-0.077,0.296-0.25,0.355c-0.175,0.526-0.616,0-0.792-0.175
		c0.877-4.552,1.753-9.357,1.662-14.085c-3.973,4.047-4.781,9.649-6.298,14.89c-0.353,1.219-0.744,2.417-1.222,3.571h1.222
		c1.088-0.794,1.477-2.128,1.766-3.571c0.316-1.578,0.515-3.286,1.383-4.564l0.441,0.351c-0.146,1.455-0.534,2.83-0.88,4.214
		c-0.278,1.111-0.528,2.229-0.606,3.396C325.404,434.239,330.422,433.641,335.498,431.692L335.498,431.692z"/>
</g>
</svg>
